<?xml version="1.0" encoding="utf-8"?>
<!-- Generator: Adobe Illustrator 19.1.0, SVG Export Plug-In . SVG Version: 6.00 Build 0)  -->
<svg version="1.1" id="Layer_1" xmlns="http://www.w3.org/2000/svg" xmlns:xlink="http://www.w3.org/1999/xlink" x="0px" y="0px"
	 viewBox="0 0 50.3 50.2" enable-background="new 0 0 50.3 50.2" xml:space="preserve">
<rect x="13.9" y="7.2" fill="#FFFFFF" width="23" height="38.2"/>
<path fill="#06ACBF" d="M25.3,0.5c-13.6,0-24.6,11-24.6,24.6c0,13.6,11,24.6,24.6,24.6s24.6-11,24.6-24.6
	C49.9,11.5,38.9,0.5,25.3,0.5z M31.8,25h-4.3c0,6.8,0,15.2,0,15.2h-6.3c0,0,0-8.3,0-15.2h-3v-5.4h3v-3.5c0-2.5,1.2-6.4,6.4-6.4
	l4.7,0V15c0,0-2.8,0-3.4,0c-0.6,0-1.3,0.3-1.3,1.5v3.2h4.8L31.8,25z"/>
</svg>
