<?xml version="1.0" encoding="utf-8"?>
<!-- Generator: Adobe Illustrator 19.1.0, SVG Export Plug-In . SVG Version: 6.00 Build 0)  -->
<svg version="1.1" id="Layer_1" xmlns="http://www.w3.org/2000/svg" xmlns:xlink="http://www.w3.org/1999/xlink" x="0px" y="0px"
	 viewBox="0 0 377 63.5" enable-background="new 0 0 377 63.5" xml:space="preserve">
<polygon fill="#F05123" points="125.4,48.9 125.4,15.7 125.4,3.7 112.7,3.7 112.7,61 125.4,61 "/>
<path fill="#F05123" d="M133.4,3.7h-3.2v12h2.6c8.8,0,16,5.2,16,16.6s-7.2,16.6-16,16.6h-2.6v12h3.1c17.3,0,28.8-10.9,28.8-28.6
	S150.6,3.7,133.4,3.7"/>
<path fill="#F05123" d="M25.8,14c5.1,0.9,6.8,4.7,7.2,7l11.5-3.2c-1.1-6.3-6-14.3-18.6-15.2V14z"/>
<path fill="#F05123" d="M21.1,50.5c-5.4-1.2-8-5.1-8.4-9.5L0.9,43.9C1.7,51.3,7.6,60.7,21.1,62V50.5z"/>
<path fill="#F05123" d="M29,26.9l-7.7-1.5c-4-0.7-5.7-2.7-5.7-5.5c0-2.6,2.1-5,5.4-5.9V2.6C11.2,3.7,3,10.9,3,20.9
	c0,8.5,5.9,14.9,15.6,16.8l7.8,1.5c3.8,0.7,6.1,2.8,6.1,5.7c0,3.2-2.5,5.5-6.8,5.9v11.3c12.7-0.6,19.7-9.4,19.7-18.1
	C45.5,35.9,39.9,28.9,29,26.9"/>
<path fill="#F05123" d="M91.6,22.3c5.1,6.8,4.7,16.3-1.3,22.3c-6,6-15.6,6.4-22.3,1.3l-9.2,9.2c11.7,10,29.3,9.4,40.4-1.7
	s11.6-28.7,1.7-40.4L91.6,22.3z"/>
<path fill="#F05123" d="M64.6,42.5c-5.2-6.8-4.8-16.4,1.2-22.4c6-6,15.6-6.4,22.4-1.2l9.2-9.2C85.7-0.4,68,0.1,56.9,11.2
	C45.8,22.3,45.3,40,55.3,51.7L64.6,42.5z"/>
<polygon fill="#F05123" points="175.6,53.4 175.6,53.4 175.6,53.4 "/>
<path fill="#F05123" d="M183.2,42.4c-5.2-6.8-4.8-16.3,1.3-22.4c6-6,15.6-6.4,22.4-1.3l9.2-9.2c-11.7-10-29.4-9.5-40.4,1.6
	C164.5,22.3,164,39.9,174,51.6L183.2,42.4z"/>
<path fill="#F05123" d="M210.2,22.2c5.2,6.8,4.8,16.3-1.3,22.4c-6,6-15.6,6.4-22.4,1.3l-9.2,9.2c11.7,10,29.4,9.5,40.4-1.6
	c11.1-11.1,11.6-28.7,1.6-40.4L210.2,22.2z"/>
<path fill="#FFFFFF" d="M306.6,25.9c2.5,0,4-1.3,4-3.4c0-2.1-1.3-3.6-3.9-3.6h-5.3v7H306.6z M306.1,14.7c2.4,0,3.8-1.3,3.8-3.3
	c0-2-1.3-3.3-3.8-3.3h-4.7v6.6H306.1z M306.9,3.7c5.2,0,8.1,3,8.1,7.1c0,2.7-1.6,4.9-3.9,5.7c2.6,0.6,4.7,3,4.7,6.3
	c0,4.3-3.2,7.4-8.2,7.4h-11.3V3.7H306.9z"/>
<path fill="#FFFFFF" d="M328.1,19.4h7.3l-3.7-10L328.1,19.4z M337.1,24.2h-10.8l-2.2,6.1h-5.5l10.2-26.5h6L345,30.2h-5.6L337.1,24.2
	z"/>
<polygon fill="#FFFFFF" points="365.9,30.2 353.9,11.4 353.9,30.2 348.7,30.2 348.7,3.7 355.2,3.7 366.2,21.2 366.2,3.7 371.4,3.7 
	371.4,30.2 "/>
<path fill="#FFFFFF" d="M280.8,15.6c2.6,0,4.1-1.5,4.1-3.7c0-2.2-1.5-3.7-4.1-3.7h-4.6v7.4H280.8z M279.3,20h-3.1v10.2H271V3.7h10.8
	c5.2,0,8.4,3.6,8.4,8.2c0,3.7-2.2,6.5-5.6,7.5l5.9,10.8h-5.8L279.3,20z"/>
<path fill="#FFFFFF" d="M259,3.7v16.7c0,3.5-2.9,5.3-5.9,5.3c-3.1,0-5.9-1.8-5.9-5.3V3.7h-5.2v17.1c0,6.5,5.5,10,11.1,10
	c5.6,0,11.1-3.5,11.1-10V3.7H259z"/>
<polygon fill="#FFFFFF" points="268.1,34.5 273.6,34.5 267.1,61 262.7,61 256.9,42.6 251.1,61 246.6,61 240.1,34.5 245.8,34.5 
	249.3,50.9 254.8,34.5 259.1,34.5 264.6,51 "/>
<path fill="#FFFFFF" d="M289.1,56.6c4.1,0,8.3-2.8,8.3-8.8c0-6-4.2-8.8-8.3-8.8c-4.1,0-8.3,2.8-8.3,8.8
	C280.8,53.8,285,56.6,289.1,56.6 M289.1,34c7.2,0,13.6,5.3,13.6,13.8c0,8.5-6.4,13.8-13.6,13.8c-7.2,0-13.6-5.3-13.6-13.8
	C275.5,39.2,281.9,34,289.1,34"/>
<path fill="#FFFFFF" d="M317.2,46.4c2.6,0,4.1-1.5,4.1-3.7c0-2.2-1.5-3.7-4.1-3.7h-4.6v7.4H317.2z M315.7,50.8h-3.1V61h-5.2V34.5
	h10.8c5.2,0,8.4,3.6,8.4,8.1c0,3.7-2.2,6.5-5.6,7.5l5.9,10.8h-5.8L315.7,50.8z"/>
<path fill="#FFFFFF" d="M368.5,42.3c-0.3-1.5-1.5-3.7-4.8-3.7c-2.5,0-4.1,1.6-4.1,3.4c0,1.5,0.9,2.6,2.9,3l3.7,0.7
	c4.8,0.9,7.4,4.1,7.4,7.8c0,4.1-3.4,8.2-9.6,8.2c-7,0-10.1-4.5-10.5-8.3l4.8-1.3c0.2,2.6,2.1,5,5.8,5c2.8,0,4.3-1.4,4.3-3.3
	c0-1.5-1.2-2.7-3.2-3.1l-3.7-0.7c-4.2-0.9-7-3.6-7-7.6c0-4.7,4.2-8.3,9.2-8.3c6.4,0,8.9,3.9,9.5,6.9L368.5,42.3z"/>
<polygon fill="#FFFFFF" points="352.5,61 342.1,47.4 352.1,34.5 345.8,34.5 337,45.8 337,34.5 331.8,34.5 331.8,61 337,61 337,49.1 
	346,61 "/>
</svg>
