<svg xmlns="http://www.w3.org/2000/svg" width="786.4" height="626.1" viewBox="0 0 786.4 626.1"><path fill="#0DACBF" d="M163.3 207.3h-18.4v4.3h6.9v20.2h4.5v-20.2h6.9v-4.3zM181.4 222.4c0-5.6-2.5-8.4-7.5-8.4-1.2 0-2.4.4-3.6 1.2v-9.7H166v26.3h4.3v-12.7c.9-1 2-1.5 3.3-1.5 1.2 0 2.1.4 2.6 1.2.5.8.8 2 .8 3.6v9.4h4.3v-9.4zM190 207.3h-4.3v4.3h4.3v-4.3zm0 7h-4.3v17.5h4.3v-17.5zM206.2 227c0-.8-.1-1.5-.3-2.1-.2-.6-.5-1.1-1-1.5-.4-.4-.9-.8-1.5-1.1-.6-.3-1.3-.5-2-.7-.2 0-.4-.1-.7-.2-.3-.1-.5-.1-.7-.2l-.6-.2c-.6-.2-1.1-.5-1.5-.8-.4-.3-.5-.7-.5-1.3 0-.7.3-1.1.8-1.5.5-.3 1.2-.5 2.1-.5.4 0 .9.1 1.4.2.5.1.9.2 1.3.4l1.2.6c.4.2.7.5.9.7l.4-3.7c-.5-.4-1.3-.7-2.3-.9-1-.3-2.1-.4-3.2-.4s-2.1.2-2.9.5-1.5.7-2 1.2-.9 1.1-1.1 1.8c-.2.7-.4 1.4-.4 2.1.1 1 .3 1.8.6 2.4.4.6.9 1.1 1.6 1.5.9.5 1.8.8 2.5 1 .7.2 1.4.4 1.9.6.5.2.9.4 1.2.7.3.3.4.7.4 1.2s-.2 1-.6 1.4c-.4.4-1.1.6-2.1.6-.5 0-1-.1-1.5-.2s-1-.2-1.5-.4-.9-.4-1.4-.6c-.4-.2-.8-.4-1.1-.6l-.4 3.7c1.3.9 3.3 1.3 5.9 1.3 4.8.2 7.1-1.6 7.1-5zM233.2 222.4c0-5.6-2.5-8.4-7.5-8.4-1.2 0-2.4.4-3.6 1.2v-9.7h-4.3v26.3h4.3v-12.7c.9-1 2-1.5 3.3-1.5 1.2 0 2.1.4 2.6 1.2.5.8.8 2 .8 3.6v9.4h4.3v-9.4zM251.9 228.6c-.3 0-.6 0-.8-.1-.2 0-.4-.2-.5-.4-.1-.2-.2-.5-.2-.9s-.1-.9-.1-1.5V221c0-4.7-2.1-7-6.3-7-2.1 0-4.2.5-6.4 1.5l.4 3.5c1.8-.9 3.4-1.3 4.8-1.3 1.1 0 1.9.2 2.4.6.5.4.7 1.2.8 2.2-.9 0-1.9.1-3 .4-1.1.2-2.2.6-3.2 1-1 .5-1.9 1.1-2.6 1.9-.7.8-1.1 1.8-1.1 3 0 .8.1 1.5.4 2.2.3.6.6 1.2 1.1 1.6.5.5 1 .8 1.6 1.1.6.2 1.3.4 2 .4 2.4 0 4.1-.7 5.4-2 .7 1.4 2 2 3.9 2h1.6l.4-3.6h-.6zm-8.9.2c-1.6 0-2.3-.7-2.3-2.1 0-.5.2-.9.5-1.3s.7-.7 1.2-1c.5-.3 1.1-.5 1.7-.6.6-.1 1.3-.2 2-.3v4c-1 .9-2 1.3-3.1 1.3zM267.1 227c0-.8-.1-1.5-.3-2.1-.2-.6-.5-1.1-1-1.5s-.9-.8-1.5-1.1c-.6-.3-1.3-.5-2-.7-.2 0-.4-.1-.7-.2-.3-.1-.5-.1-.7-.2l-.6-.2c-.6-.2-1.1-.5-1.5-.8-.4-.3-.5-.7-.5-1.3 0-.7.3-1.1.8-1.5.5-.3 1.2-.5 2.1-.5.4 0 .9.1 1.4.2.5.1.9.2 1.3.4l1.2.6c.4.2.7.5.9.7l.4-3.7c-.5-.4-1.3-.7-2.3-.9-1-.3-2.1-.4-3.2-.4s-2.1.2-2.9.5c-.8.3-1.5.7-2 1.2s-.9 1.1-1.1 1.8c-.2.7-.4 1.4-.4 2.1.1 1 .3 1.8.6 2.4.4.6.9 1.1 1.6 1.5.9.5 1.8.8 2.5 1 .7.2 1.4.4 1.9.6.5.2.9.4 1.2.7.3.3.4.7.4 1.2s-.2 1-.6 1.4c-.4.4-1.1.6-2.1.6-.5 0-1-.1-1.5-.2s-1-.2-1.5-.4-.9-.4-1.4-.6c-.4-.2-.8-.4-1.1-.6l-.4 3.7c1.3.9 3.3 1.3 5.9 1.3 4.8.2 7.1-1.6 7.1-5zM290.7 231.5c1.1-.5 2-1.1 2.7-1.9.7-.8 1.3-1.8 1.7-2.9.4-1.1.6-2.3.6-3.5s-.2-2.4-.6-3.6c-.4-1.1-1-2.1-1.7-2.9-.7-.8-1.6-1.5-2.7-1.9-1.1-.5-2.3-.7-3.6-.7-1.6 0-3 .4-4.1 1.2v-9.6h-4.3V232h4.1l.1-1c1.3.9 2.7 1.3 4.3 1.3 1.2-.1 2.4-.4 3.5-.8zm-.7-12.4c.8 1 1.2 2.3 1.2 4 0 1.7-.4 3-1.2 4-.8 1-1.8 1.5-3.2 1.5-1.3 0-2.4-.5-3-1.5-.7-1-1-2.3-1-4 0-1.7.3-3 1-4s1.7-1.5 3-1.5 2.4.5 3.2 1.5zM314 221.6c0-1.1-.2-2.2-.6-3.1-.4-.9-.9-1.7-1.6-2.4-.7-.7-1.5-1.2-2.5-1.5-.9-.4-2-.5-3.1-.5-1.3 0-2.5.2-3.5.7-1 .5-1.9 1.1-2.6 1.9-.7.8-1.3 1.8-1.7 2.9-.4 1.1-.6 2.3-.6 3.5 0 1.3.2 2.5.6 3.6.4 1.1 1 2.1 1.8 2.9.8.8 1.8 1.4 3 1.9s2.5.7 4.1.7c2.2 0 4.1-.4 5.8-1.3l-.2-3.7c-.4.2-.8.4-1.3.6-.5.2-.9.3-1.4.5-.5.1-1 .2-1.4.3-.5.1-.9.1-1.3.1-1.3 0-2.4-.4-3.4-1.2-1-.8-1.6-1.9-1.8-3.4h11.3c.3-1 .4-1.8.4-2.5zm-10.2-3.1c.7-.6 1.5-.9 2.6-.9s1.9.4 2.4 1.1c.5.7.8 1.5.8 2.4h-7.1c.2-1.1.7-1.9 1.3-2.6zM332.4 221.6c0-1.1-.2-2.2-.6-3.1-.4-.9-.9-1.7-1.6-2.4-.7-.7-1.5-1.2-2.5-1.5-.9-.4-2-.5-3.1-.5-1.3 0-2.5.2-3.5.7-1 .5-1.9 1.1-2.6 1.9-.7.8-1.3 1.8-1.7 2.9-.4 1.1-.6 2.3-.6 3.5 0 1.3.2 2.5.6 3.6.4 1.1 1 2.1 1.8 2.9.8.8 1.8 1.4 3 1.9s2.5.7 4.1.7c2.2 0 4.1-.4 5.8-1.3l-.2-3.7c-.4.2-.8.4-1.3.6-.5.2-.9.3-1.4.5-.5.1-1 .2-1.4.3-.5.1-.9.1-1.3.1-1.3 0-2.4-.4-3.4-1.2-1-.8-1.6-1.9-1.8-3.4H332c.3-1 .4-1.8.4-2.5zm-10.2-3.1c.7-.6 1.5-.9 2.6-.9s1.9.4 2.4 1.1c.5.7.8 1.5.8 2.4h-7.1c.2-1.1.7-1.9 1.3-2.6zM351.2 222.4c0-5.6-2.5-8.4-7.5-8.4-1.3 0-2.6.4-3.9 1.3l-.1-1.1h-4.1v17.5h4.3V219c.9-1 2-1.5 3.3-1.5 1.2 0 2.1.4 2.6 1.2.5.8.8 2 .8 3.6v9.4h4.3v-9.3zM378.1 228.6c-.3 0-.6 0-.8-.1-.2 0-.4-.2-.5-.4-.1-.2-.2-.5-.2-.9s-.1-.9-.1-1.5V221c0-4.7-2.1-7-6.3-7-2.1 0-4.2.5-6.4 1.5l.4 3.5c1.8-.9 3.4-1.3 4.8-1.3 1.1 0 1.9.2 2.4.6.5.4.7 1.2.8 2.2-.9 0-1.9.1-3 .4-1.1.2-2.2.6-3.2 1-1 .5-1.9 1.1-2.6 1.9-.7.8-1.1 1.8-1.1 3 0 .8.1 1.5.4 2.2.3.6.6 1.2 1.1 1.6.5.5 1 .8 1.6 1.1.6.2 1.3.4 2 .4 2.4 0 4.1-.7 5.4-2 .7 1.4 2 2 3.9 2h1.6l.4-3.6h-.6zm-8.8.2c-1.6 0-2.3-.7-2.3-2.1 0-.5.2-.9.5-1.3s.7-.7 1.2-1c.5-.3 1.1-.5 1.7-.6.6-.1 1.3-.2 2-.3v4c-1 .9-2 1.3-3.1 1.3zM403 239.1c1.4-1 2.2-2.4 2.2-4.1-.1-1-.3-1.9-.8-2.5-.5-.6-1-1.2-1.7-1.5s-1.4-.7-2.2-.8c-.8-.2-1.6-.3-2.4-.4-1.6-.2-2.8-.4-3.4-.6-.6-.2-1-.5-1-.9 0-.3.1-.4.4-.6.3 0 .6.1.9.1.3 0 .6.1.9.1 1.1 0 2.1-.2 3-.5.9-.4 1.6-.9 2.2-1.5.6-.6 1.1-1.3 1.4-2.2.3-.8.5-1.7.5-2.7 0-1.5-.4-2.8-1.1-3.9h2.5l.3-2.7h-1.1c-1.6 0-2.8.3-3.7.8-1.1-.7-2.4-1.1-4-1.1-1.1 0-2.1.2-3 .5-.9.4-1.6.8-2.2 1.5-.6.6-1.1 1.3-1.4 2.2-.3.8-.5 1.8-.5 2.7 0 2.5.9 4.3 2.7 5.6-1.2.6-1.8 1.4-1.8 2.4s.5 1.9 1.6 2.5c-1.9 1-2.9 2.3-2.9 3.9 0 .7.2 1.4.5 2 .4.6.9 1.2 1.6 1.6.7.5 1.6.8 2.6 1.1 1 .3 2.2.4 3.6.4 2.7.1 4.8-.4 6.3-1.4zm-4.7-20.9c.5.7.8 1.6.8 2.7s-.3 2-.8 2.7c-.5.7-1.3 1-2.4 1s-1.9-.3-2.4-1-.8-1.6-.8-2.7.3-2 .8-2.7c.5-.7 1.3-1 2.4-1s1.9.3 2.4 1zm1.7 15.3c.9.3 1.3.8 1.3 1.6 0 .7-.4 1.3-1.3 1.8-.9.4-2 .6-3.4.6s-2.5-.2-3.3-.7c-.8-.5-1.2-1.1-1.2-1.8 0-1.1.8-1.9 2.4-2.4.8.1 1.5.2 2.1.3 1.4.1 2.5.3 3.4.6zM416.4 214c-1.8 0-3.3.7-4.7 2.1l-.1-1.9h-4.1v17.5h4.3v-11.9c.3-.5.7-.9 1.3-1.3.6-.3 1.2-.5 1.9-.5h1.6l.8-4.1h-1zM434.7 221.6c0-1.1-.2-2.2-.6-3.1-.4-.9-.9-1.7-1.6-2.4-.7-.7-1.5-1.2-2.5-1.5-.9-.4-2-.5-3.1-.5-1.3 0-2.5.2-3.5.7-1 .5-1.9 1.1-2.6 1.9-.7.8-1.3 1.8-1.7 2.9-.4 1.1-.6 2.3-.6 3.5 0 1.3.2 2.5.6 3.6.4 1.1 1 2.1 1.8 2.9s1.8 1.4 3 1.9 2.5.7 4.1.7c2.2 0 4.1-.4 5.8-1.3l-.2-3.7c-.4.2-.8.4-1.3.6-.5.2-.9.3-1.4.5-.5.1-1 .2-1.4.3-.5.1-.9.1-1.3.1-1.3 0-2.4-.4-3.4-1.2-1-.8-1.6-1.9-1.8-3.4h11.3c.3-1 .4-1.8.4-2.5zm-10.2-3.1c.7-.6 1.5-.9 2.6-.9s1.9.4 2.4 1.1c.5.7.8 1.5.8 2.4h-7.1c.2-1.1.6-1.9 1.3-2.6zM452.4 228.6c-.3 0-.6 0-.8-.1-.2 0-.4-.2-.5-.4-.1-.2-.2-.5-.2-.9s-.1-.9-.1-1.5V221c0-4.7-2.1-7-6.3-7-2.1 0-4.2.5-6.4 1.5l.4 3.5c1.8-.9 3.4-1.3 4.8-1.3 1.1 0 1.9.2 2.4.6.5.4.7 1.2.8 2.2-.9 0-1.9.1-3 .4-1.1.2-2.2.6-3.2 1-1 .5-1.9 1.1-2.6 1.9-.7.8-1.1 1.8-1.1 3 0 .8.1 1.5.4 2.2.3.6.6 1.2 1.1 1.6.5.5 1 .8 1.6 1.1.6.2 1.3.4 2 .4 2.4 0 4.1-.7 5.4-2 .7 1.4 2 2 3.9 2h1.6l.4-3.6h-.6zm-8.8.2c-1.6 0-2.3-.7-2.3-2.1 0-.5.2-.9.5-1.3s.7-.7 1.2-1c.5-.3 1.1-.5 1.7-.6.6-.1 1.3-.2 2-.3v4c-1 .9-2 1.3-3.1 1.3zM463.5 228.6c-.6 0-1.1 0-1.5-.1-.4 0-.6-.1-.8-.3-.2-.2-.3-.5-.3-.8 0-.4-.1-.9-.1-1.6v-7.9h3.9v-3.6h-3.9V210l-4.3.5v3.9h-2.1l-.4 3.6h2.5v9.7c0 .6.1 1.2.3 1.8.2.6.5 1 .9 1.5.4.4.9.7 1.5 1 .6.2 1.3.4 2 .4h3.1l.4-3.6h-1.2zM481.4 228.5c-.3 0-.5-.2-.6-.3-.1-.2-.2-.4-.3-.8 0-.4-.1-.9-.1-1.6v-20.2h-4.3v22c0 1.4.4 2.5 1.1 3.3.7.9 1.9 1.3 3.4 1.3h1.6l.4-3.6c-.5 0-.9 0-1.2-.1zM502.2 223.1c0-1.3-.2-2.4-.6-3.5-.4-1.1-1-2.1-1.8-2.9-.8-.8-1.7-1.5-2.8-1.9-1.1-.5-2.3-.7-3.7-.7-1.4 0-2.6.2-3.7.7-1.1.5-2 1.1-2.8 1.9-.8.8-1.4 1.8-1.8 2.9-.4 1.1-.6 2.3-.6 3.6 0 1.3.2 2.5.6 3.6.4 1.1 1 2.1 1.8 2.9.8.8 1.7 1.5 2.8 1.9 1.1.5 2.3.7 3.7.7 2.7 0 4.9-.9 6.4-2.6 1.7-1.9 2.5-4.1 2.5-6.6zm-4.5 0c0 1.6-.4 2.9-1.1 4-.8 1-1.8 1.5-3.2 1.5-1.4 0-2.5-.5-3.2-1.5-.8-1-1.1-2.3-1.1-4 0-1.7.4-3 1.1-4 .8-1 1.8-1.5 3.2-1.5 1.4 0 2.4.5 3.2 1.5.7 1 1.1 2.3 1.1 4zM518.3 230.9l-.4-3.7c-1.4 1-2.9 1.4-4.5 1.4-1.4 0-2.5-.5-3.2-1.5-.8-1-1.2-2.3-1.2-4 0-1.7.4-3 1.2-4 .8-1 1.8-1.5 3.2-1.5 1.6 0 3.1.5 4.5 1.4l.4-3.7c-1.4-.9-3.1-1.3-5.3-1.3-1.4 0-2.6.2-3.6.7-1.1.5-1.9 1.1-2.7 1.9-.7.8-1.3 1.8-1.7 2.9-.4 1.1-.6 2.3-.6 3.6 0 1.3.2 2.5.6 3.6.4 1.1.9 2.1 1.7 2.9.7.8 1.6 1.4 2.7 1.9s2.3.7 3.6.7c2.2 0 3.9-.5 5.3-1.3zM536 228.6c-.3 0-.6 0-.8-.1-.2 0-.4-.2-.5-.4-.1-.2-.2-.5-.2-.9s-.1-.9-.1-1.5V221c0-4.7-2.1-7-6.3-7-2.1 0-4.2.5-6.4 1.5l.4 3.5c1.8-.9 3.4-1.3 4.8-1.3 1.1 0 1.9.2 2.4.6.5.4.7 1.2.8 2.2-.9 0-1.9.1-3 .4-1.1.2-2.2.6-3.2 1-1 .5-1.9 1.1-2.6 1.9-.7.8-1.1 1.8-1.1 3 0 .8.1 1.5.4 2.2.3.6.6 1.2 1.1 1.6.5.5 1 .8 1.6 1.1.6.2 1.3.4 2 .4 2.4 0 4.1-.7 5.4-2 .7 1.4 2 2 3.9 2h1.6l.4-3.6h-.6zm-8.8.2c-1.6 0-2.3-.7-2.3-2.1 0-.5.2-.9.5-1.3s.7-.7 1.2-1c.5-.3 1.1-.5 1.7-.6.6-.1 1.3-.2 2-.3v4c-1 .9-2 1.3-3.1 1.3zM547.1 228.6c-.6 0-1.1 0-1.5-.1-.4 0-.6-.1-.8-.3-.2-.2-.3-.5-.3-.8 0-.4-.1-.9-.1-1.6v-7.9h3.9v-3.6h-3.9V210l-4.3.5v3.9H538l-.4 3.6h2.5v9.7c0 .6.1 1.2.3 1.8.2.6.5 1 .9 1.5.4.4.9.7 1.5 1 .6.2 1.3.4 2 .4h3.1l.4-3.6h-1.2zM555.8 207.3h-4.3v4.3h4.3v-4.3zm0 7h-4.3v17.5h4.3v-17.5zM576.9 223.1c0-1.3-.2-2.4-.6-3.5-.4-1.1-1-2.1-1.8-2.9-.8-.8-1.7-1.5-2.8-1.9-1.1-.5-2.3-.7-3.7-.7-1.4 0-2.6.2-3.7.7-1.1.5-2 1.1-2.8 1.9-.8.8-1.4 1.8-1.8 2.9-.4 1.1-.6 2.3-.6 3.6 0 1.3.2 2.5.6 3.6.4 1.1 1 2.1 1.8 2.9.8.8 1.7 1.5 2.8 1.9 1.1.5 2.3.7 3.7.7 2.7 0 4.9-.9 6.4-2.6 1.7-1.9 2.5-4.1 2.5-6.6zm-4.5 0c0 1.6-.4 2.9-1.1 4-.8 1-1.8 1.5-3.2 1.5-1.4 0-2.5-.5-3.2-1.5-.8-1-1.1-2.3-1.1-4 0-1.7.4-3 1.1-4 .8-1 1.8-1.5 3.2-1.5 1.4 0 2.4.5 3.2 1.5.7 1 1.1 2.3 1.1 4zM595.7 222.4c0-5.6-2.5-8.4-7.5-8.4-1.3 0-2.6.4-3.9 1.3l-.1-1.1h-4.1v17.5h4.3V219c.9-1 2-1.5 3.3-1.5 1.2 0 2.1.4 2.6 1.2.5.8.8 2 .8 3.6v9.4h4.3v-9.3zM616.2 228.6c-.6 0-1.1 0-1.5-.1-.4 0-.6-.1-.8-.3-.2-.2-.3-.5-.3-.8 0-.4-.1-.9-.1-1.6v-7.9h3.9v-3.6h-3.9V210l-4.3.5v3.9h-2.1l-.4 3.6h2.5v9.7c0 .6.1 1.2.3 1.8.2.6.5 1 .9 1.5.4.4.9.7 1.5 1 .6.2 1.3.4 2 .4h3.1l.4-3.6h-1.2zM637.3 223.1c0-1.3-.2-2.4-.6-3.5-.4-1.1-1-2.1-1.8-2.9-.8-.8-1.7-1.5-2.8-1.9-1.1-.5-2.3-.7-3.7-.7-1.4 0-2.6.2-3.7.7-1.1.5-2 1.1-2.8 1.9-.8.8-1.4 1.8-1.8 2.9-.4 1.1-.6 2.3-.6 3.6 0 1.3.2 2.5.6 3.6.4 1.1 1 2.1 1.8 2.9.8.8 1.7 1.5 2.8 1.9 1.1.5 2.3.7 3.7.7 2.7 0 4.9-.9 6.4-2.6 1.7-1.9 2.5-4.1 2.5-6.6zm-4.5 0c0 1.6-.4 2.9-1.1 4-.8 1-1.8 1.5-3.2 1.5s-2.5-.5-3.2-1.5c-.8-1-1.1-2.3-1.1-4 0-1.7.4-3 1.1-4 .8-1 1.8-1.5 3.2-1.5 1.4 0 2.4.5 3.2 1.5.7 1 1.1 2.3 1.1 4zM152.7 283.4c1.4-1 2.2-2.4 2.2-4.1-.1-1-.3-1.9-.8-2.5-.5-.6-1-1.2-1.7-1.5-.7-.4-1.4-.7-2.2-.8-.8-.2-1.6-.3-2.4-.4-1.6-.2-2.8-.4-3.4-.6-.6-.2-1-.5-1-.9 0-.3.1-.4.4-.6.3 0 .6.1.9.1.3 0 .6.1.9.1 1.1 0 2.1-.2 3-.5.9-.4 1.6-.9 2.2-1.5.6-.6 1.1-1.3 1.4-2.2.3-.8.5-1.7.5-2.7 0-1.5-.4-2.8-1.1-3.9h2.5l.3-2.7h-1.1c-1.6 0-2.8.3-3.7.8-1.1-.7-2.4-1.1-4-1.1-1.1 0-2.1.2-3 .5-.9.4-1.6.8-2.2 1.5-.6.6-1.1 1.3-1.4 2.2-.3.8-.5 1.8-.5 2.7 0 2.5.9 4.3 2.7 5.6-1.2.6-1.8 1.4-1.8 2.4s.5 1.9 1.6 2.5c-1.9 1-2.9 2.3-2.9 3.9 0 .7.2 1.4.5 2 .4.6.9 1.2 1.6 1.6.7.5 1.6.8 2.6 1.1 1 .3 2.2.4 3.6.4 2.8.1 4.9-.4 6.3-1.4zm-4.6-20.8c.5.7.8 1.6.8 2.7s-.3 2-.8 2.7c-.5.7-1.3 1-2.4 1-1.1 0-1.9-.3-2.4-1s-.8-1.6-.8-2.7.3-2 .8-2.7c.5-.7 1.3-1 2.4-1 1.1 0 1.9.3 2.4 1zm1.7 15.3c.9.3 1.3.8 1.3 1.6 0 .7-.4 1.3-1.3 1.8s-2 .6-3.4.6-2.5-.2-3.3-.7c-.8-.5-1.2-1.1-1.2-1.8 0-1.1.8-1.9 2.4-2.4.8.1 1.5.2 2.1.3 1.4.1 2.5.3 3.4.6zM166.2 258.4c-1.8 0-3.3.7-4.7 2.1l-.1-1.9h-4.1v17.5h4.3v-11.9c.3-.5.7-.9 1.3-1.3.6-.3 1.2-.5 1.9-.5h1.6l.8-4.1h-1zM186.1 267.5c0-1.3-.2-2.4-.6-3.5-.4-1.1-1-2.1-1.8-2.9-.8-.8-1.7-1.5-2.8-1.9-1.1-.5-2.3-.7-3.7-.7-1.4 0-2.6.2-3.7.7-1.1.5-2 1.1-2.8 1.9-.8.8-1.4 1.8-1.8 2.9-.4 1.1-.6 2.3-.6 3.6 0 1.3.2 2.5.6 3.6.4 1.1 1 2.1 1.8 2.9.8.8 1.7 1.5 2.8 1.9 1.1.5 2.3.7 3.7.7 2.7 0 4.9-.9 6.4-2.6 1.7-2 2.5-4.1 2.5-6.6zm-4.5 0c0 1.6-.4 2.9-1.1 4-.8 1-1.8 1.5-3.2 1.5-1.4 0-2.5-.5-3.2-1.5-.8-1-1.1-2.3-1.1-4 0-1.7.4-3 1.1-4 .8-1 1.8-1.5 3.2-1.5 1.4 0 2.4.5 3.2 1.5.7 1 1.1 2.3 1.1 4zM208 258.7l-3 12.2-3.3-11.9h-3.6l-3.3 11.9-3-12.2h-4.2l5.1 17.5h3.6l3.6-11.4 3.6 11.4h3.6l5.1-17.5H208zM239.9 267.5c0-1.3-.2-2.4-.6-3.5-.4-1.1-1-2.1-1.8-2.9-.8-.8-1.7-1.5-2.8-1.9-1.1-.5-2.3-.7-3.7-.7-1.4 0-2.6.2-3.7.7-1.1.5-2 1.1-2.8 1.9-.8.8-1.4 1.8-1.8 2.9-.4 1.1-.6 2.3-.6 3.6 0 1.3.2 2.5.6 3.6.4 1.1 1 2.1 1.8 2.9.8.8 1.7 1.5 2.8 1.9 1.1.5 2.3.7 3.7.7 2.7 0 4.9-.9 6.4-2.6 1.7-2 2.5-4.1 2.5-6.6zm-4.5 0c0 1.6-.4 2.9-1.1 4-.8 1-1.8 1.5-3.2 1.5-1.4 0-2.5-.5-3.2-1.5-.8-1-1.1-2.3-1.1-4 0-1.7.4-3 1.1-4 .8-1 1.8-1.5 3.2-1.5 1.4 0 2.4.5 3.2 1.5.7 1 1.1 2.3 1.1 4zM258.5 258.7h-4.3v12.7c-.8 1-1.9 1.5-3.3 1.5-1.2 0-2.1-.4-2.6-1.2-.5-.8-.8-2-.8-3.6v-9.4h-4.3v9.4c0 5.6 2.5 8.4 7.4 8.4 1.4 0 2.7-.5 3.9-1.4l.1 1.1h4.1v-17.5zM271.8 258.4c-1.8 0-3.3.7-4.7 2.1l-.1-1.9h-4.1v17.5h4.3v-11.9c.3-.5.7-.9 1.3-1.3.6-.3 1.2-.5 1.9-.5h1.6l.8-4.1h-1zM295.5 275.8c1.1-.5 2-1.1 2.7-1.9.7-.8 1.3-1.8 1.7-2.9.4-1.1.6-2.3.6-3.5 0-1.3-.2-2.4-.6-3.6-.4-1.1-1-2.1-1.7-2.9-.7-.8-1.6-1.5-2.7-1.9-1.1-.5-2.3-.7-3.6-.7-1.6 0-3 .4-4.1 1.2V250h-4.3v26.3h4.1l.1-1c1.3.9 2.7 1.3 4.3 1.3 1.3-.1 2.5-.3 3.5-.8zm-.7-12.4c.8 1 1.2 2.3 1.2 4 0 1.7-.4 3-1.2 4-.8 1-1.8 1.5-3.2 1.5-1.3 0-2.4-.5-3-1.5-.7-1-1-2.3-1-4 0-1.7.3-3 1-4s1.7-1.5 3-1.5c1.4.1 2.5.6 3.2 1.5zM319.1 258.7h-4.3v12.7c-.8 1-1.9 1.5-3.3 1.5-1.2 0-2.1-.4-2.6-1.2-.5-.8-.8-2-.8-3.6v-9.4h-4.3v9.4c0 5.6 2.5 8.4 7.4 8.4 1.4 0 2.7-.5 3.9-1.4l.1 1.1h4.1v-17.5zM335.4 271.4c0-.8-.1-1.5-.3-2.1-.2-.6-.5-1.1-1-1.5-.4-.4-.9-.8-1.5-1.1-.6-.3-1.3-.5-2-.7-.2 0-.4-.1-.7-.2-.3-.1-.5-.1-.7-.2l-.6-.2c-.6-.2-1.1-.5-1.5-.8-.4-.3-.5-.7-.5-1.3 0-.7.3-1.1.8-1.5.5-.3 1.2-.5 2.1-.5.4 0 .9.1 1.4.2.5.1.9.2 1.3.4l1.2.6c.4.2.7.5.9.7l.4-3.7c-.5-.4-1.3-.7-2.3-.9-1-.3-2.1-.4-3.2-.4s-2.1.2-2.9.5c-.8.3-1.5.7-2 1.2s-.9 1.1-1.1 1.8c-.2.7-.4 1.4-.4 2.1.1 1 .3 1.8.6 2.4.4.6.9 1.1 1.6 1.5.9.5 1.8.8 2.5 1 .7.2 1.4.4 1.9.6.5.2.9.4 1.2.7.3.3.4.7.4 1.2s-.2 1-.6 1.4c-.4.4-1.1.6-2.1.6-.5 0-1-.1-1.5-.2s-1-.2-1.5-.4-.9-.4-1.4-.6c-.4-.2-.8-.4-1.1-.6l-.4 3.7c1.3.9 3.3 1.3 5.9 1.3 4.8.1 7.1-1.6 7.1-5zM343 251.7h-4.3v4.3h4.3v-4.3zm0 7h-4.3v17.5h4.3v-17.5zM362.9 266.8c0-5.6-2.5-8.4-7.5-8.4-1.3 0-2.6.4-3.9 1.3l-.1-1.1h-4.1v17.5h4.3v-12.7c.9-1 2-1.5 3.3-1.5 1.2 0 2.1.4 2.6 1.2.5.8.8 2 .8 3.6v9.4h4.3v-9.3zM382.2 266c0-1.1-.2-2.2-.6-3.1-.4-.9-.9-1.7-1.6-2.4-.7-.7-1.5-1.2-2.5-1.5-.9-.4-2-.5-3.1-.5-1.3 0-2.5.2-3.5.7-1 .5-1.9 1.1-2.6 1.9-.7.8-1.3 1.8-1.7 2.9-.4 1.1-.6 2.3-.6 3.5 0 1.3.2 2.5.6 3.6.4 1.1 1 2.1 1.8 2.9.8.8 1.8 1.4 3 1.9s2.5.7 4.1.7c2.2 0 4.1-.4 5.8-1.3l-.2-3.7c-.4.2-.8.4-1.3.6-.5.2-.9.3-1.4.5-.5.1-1 .2-1.4.3-.5.1-.9.1-1.3.1-1.3 0-2.4-.4-3.4-1.2-1-.8-1.6-1.9-1.8-3.4h11.3c.3-1.1.4-1.9.4-2.5zm-10.2-3.1c.7-.6 1.5-.9 2.6-.9s1.9.4 2.4 1.1c.5.7.8 1.5.8 2.4h-7.1c.2-1.1.6-2 1.3-2.6zM397.4 271.4c0-.8-.1-1.5-.3-2.1-.2-.6-.5-1.1-1-1.5s-.9-.8-1.5-1.1c-.6-.3-1.3-.5-2-.7-.2 0-.4-.1-.7-.2-.3-.1-.5-.1-.7-.2l-.6-.2c-.6-.2-1.1-.5-1.5-.8-.4-.3-.5-.7-.5-1.3 0-.7.3-1.1.8-1.5.5-.3 1.2-.5 2.1-.5.4 0 .9.1 1.4.2.5.1.9.2 1.3.4l1.2.6c.4.2.7.5.9.7l.4-3.7c-.5-.4-1.3-.7-2.3-.9-1-.3-2.1-.4-3.2-.4s-2.1.2-2.9.5c-.8.3-1.5.7-2 1.2s-.9 1.1-1.1 1.8c-.2.7-.4 1.4-.4 2.1.1 1 .3 1.8.6 2.4.4.6.9 1.1 1.6 1.5.9.5 1.8.8 2.5 1 .7.2 1.4.4 1.9.6.5.2.9.4 1.2.7.3.3.4.7.4 1.2s-.2 1-.6 1.4c-.4.4-1.1.6-2.1.6-.5 0-1-.1-1.5-.2s-1-.2-1.5-.4-.9-.4-1.4-.6c-.4-.2-.8-.4-1.1-.6l-.4 3.7c1.3.9 3.3 1.3 5.9 1.3 4.8.1 7.1-1.6 7.1-5zM412.5 271.4c0-.8-.1-1.5-.3-2.1-.2-.6-.5-1.1-1-1.5s-.9-.8-1.5-1.1c-.6-.3-1.3-.5-2-.7-.2 0-.4-.1-.7-.2-.3-.1-.5-.1-.7-.2l-.6-.2c-.6-.2-1.1-.5-1.5-.8-.4-.3-.5-.7-.5-1.3 0-.7.3-1.1.8-1.5.5-.3 1.2-.5 2.1-.5.4 0 .9.1 1.4.2.5.1.9.2 1.3.4l1.2.6c.4.2.7.5.9.7l.4-3.7c-.5-.4-1.3-.7-2.3-.9-1-.3-2.1-.4-3.2-.4s-2.1.2-2.9.5-1.5.7-2 1.2-.9 1.1-1.1 1.8c-.2.7-.4 1.4-.4 2.1.1 1 .3 1.8.6 2.4.4.6.9 1.1 1.6 1.5.9.5 1.8.8 2.5 1 .7.2 1.4.4 1.9.6.5.2.9.4 1.2.7.3.3.4.7.4 1.2s-.2 1-.6 1.4c-.4.4-1.1.6-2.1.6-.5 0-1-.1-1.5-.2s-1-.2-1.5-.4-.9-.4-1.4-.6c-.4-.2-.8-.4-1.1-.6l-.4 3.7c1.3.9 3.3 1.3 5.9 1.3 4.8.1 7.1-1.6 7.1-5zM420.1 271.6h-4.3v4.6h4.3v-4.6zM446.9 251.7l-6 9.7-6-9.7h-4.8l8.5 13.7v10.9h4.5v-10.9l8.5-13.7h-4.7zM467.6 267.5c0-1.3-.2-2.4-.6-3.5-.4-1.1-1-2.1-1.8-2.9-.8-.8-1.7-1.5-2.8-1.9-1.1-.5-2.3-.7-3.7-.7-1.4 0-2.6.2-3.7.7-1.1.5-2 1.1-2.8 1.9-.8.8-1.4 1.8-1.8 2.9-.4 1.1-.6 2.3-.6 3.6 0 1.3.2 2.5.6 3.6.4 1.1 1 2.1 1.8 2.9.8.8 1.7 1.5 2.8 1.9 1.1.5 2.3.7 3.7.7 2.7 0 4.9-.9 6.4-2.6 1.7-2 2.5-4.1 2.5-6.6zm-4.4 0c0 1.6-.4 2.9-1.1 4-.8 1-1.8 1.5-3.2 1.5-1.4 0-2.5-.5-3.2-1.5-.8-1-1.1-2.3-1.1-4 0-1.7.4-3 1.1-4 .8-1 1.8-1.5 3.2-1.5 1.4 0 2.4.5 3.2 1.5.7 1 1.1 2.3 1.1 4zM486.3 258.7H482v12.7c-.8 1-1.9 1.5-3.3 1.5-1.2 0-2.1-.4-2.6-1.2-.5-.8-.8-2-.8-3.6v-9.4H471v9.4c0 5.6 2.5 8.4 7.4 8.4 1.4 0 2.7-.5 3.9-1.4l.1 1.1h4.1v-17.5zM511.6 275.2l-.4-3.7c-1.4 1-2.9 1.4-4.5 1.4-1.4 0-2.5-.5-3.2-1.5-.8-1-1.2-2.3-1.2-4 0-1.7.4-3 1.2-4 .8-1 1.8-1.5 3.2-1.5 1.6 0 3.1.5 4.5 1.4l.4-3.7c-1.4-.9-3.1-1.3-5.3-1.3-1.4 0-2.6.2-3.6.7-1.1.5-1.9 1.1-2.7 1.9-.7.8-1.3 1.8-1.7 2.9-.4 1.1-.6 2.3-.6 3.6 0 1.3.2 2.5.6 3.6.4 1.1.9 2.1 1.7 2.9.7.8 1.6 1.4 2.7 1.9s2.3.7 3.6.7c2.2 0 4-.4 5.3-1.3zM529.4 273c-.3 0-.6 0-.8-.1-.2 0-.4-.2-.5-.4-.1-.2-.2-.5-.2-.9s-.1-.9-.1-1.5v-4.7c0-4.7-2.1-7-6.3-7-2.1 0-4.2.5-6.4 1.5l.4 3.5c1.8-.9 3.4-1.3 4.8-1.3 1.1 0 1.9.2 2.4.6.5.4.7 1.2.8 2.2-.9 0-1.9.1-3 .4-1.1.2-2.2.6-3.2 1-1 .5-1.9 1.1-2.6 1.9-.7.8-1.1 1.8-1.1 3 0 .8.1 1.5.4 2.2.3.6.6 1.2 1.1 1.6s1 .8 1.6 1.1c.6.2 1.3.4 2 .4 2.4 0 4.1-.7 5.4-2 .7 1.4 2 2 3.9 2h1.6l.4-3.6h-.6zm-8.8.2c-1.6 0-2.3-.7-2.3-2.1 0-.5.2-.9.5-1.3s.7-.7 1.2-1c.5-.3 1.1-.5 1.7-.6.6-.1 1.3-.2 2-.3v4c-1 .9-2 1.3-3.1 1.3zM548.2 266.8c0-5.6-2.5-8.4-7.5-8.4-1.3 0-2.6.4-3.9 1.3l-.1-1.1h-4.1v17.5h4.3v-12.7c.9-1 2-1.5 3.3-1.5 1.2 0 2.1.4 2.6 1.2.5.8.8 2 .8 3.6v9.4h4.3v-9.3zM555.2 249.9h-4.3v4.6l1.2.4-1.2 3 .9.5 3.4-3.9v-4.6zM566.3 273c-.6 0-1.1 0-1.5-.1-.4 0-.6-.1-.8-.3-.2-.2-.3-.5-.3-.8 0-.4-.1-.9-.1-1.6v-7.9h3.9v-3.6h-3.9v-4.3l-4.3.5v3.9h-2.1l-.4 3.6h2.5v9.7c0 .6.1 1.2.3 1.8.2.6.5 1 .9 1.5.4.4.9.7 1.5 1 .6.2 1.3.4 2 .4h3.1l.4-3.6h-1.2zM591 275.8c1.1-.5 2-1.1 2.7-1.9.7-.8 1.3-1.8 1.7-2.9.4-1.1.6-2.3.6-3.5 0-1.3-.2-2.4-.6-3.6-.4-1.1-1-2.1-1.7-2.9-.7-.8-1.6-1.5-2.7-1.9-1.1-.5-2.3-.7-3.6-.7-1.6 0-3 .4-4.1 1.2V250H579v26.3h4.1l.1-1c1.3.9 2.7 1.3 4.3 1.3 1.2-.1 2.4-.3 3.5-.8zm-.7-12.4c.8 1 1.2 2.3 1.2 4 0 1.7-.4 3-1.2 4-.8 1-1.8 1.5-3.2 1.5-1.3 0-2.4-.5-3-1.5-.7-1-1-2.3-1-4 0-1.7.3-3 1-4s1.7-1.5 3-1.5c1.3.1 2.4.6 3.2 1.5zM614.3 266c0-1.1-.2-2.2-.6-3.1-.4-.9-.9-1.7-1.6-2.4-.7-.7-1.5-1.2-2.5-1.5-.9-.4-2-.5-3.1-.5-1.3 0-2.5.2-3.5.7-1 .5-1.9 1.1-2.6 1.9-.7.8-1.3 1.8-1.7 2.9-.4 1.1-.6 2.3-.6 3.5 0 1.3.2 2.5.6 3.6.4 1.1 1 2.1 1.8 2.9.8.8 1.8 1.4 3 1.9s2.5.7 4.1.7c2.2 0 4.1-.4 5.8-1.3l-.2-3.7c-.4.2-.8.4-1.3.6-.5.2-.9.3-1.4.5-.5.1-1 .2-1.4.3-.5.1-.9.1-1.3.1-1.3 0-2.4-.4-3.4-1.2-1-.8-1.6-1.9-1.8-3.4H614c.2-1.1.3-1.9.3-2.5zm-10.2-3.1c.7-.6 1.5-.9 2.6-.9s1.9.4 2.4 1.1c.5.7.8 1.5.8 2.4h-7.1c.2-1.1.7-2 1.3-2.6zM632.1 273c-.3 0-.6 0-.8-.1-.2 0-.4-.2-.5-.4-.1-.2-.2-.5-.2-.9s-.1-.9-.1-1.5v-4.7c0-4.7-2.1-7-6.3-7-2.1 0-4.2.5-6.4 1.5l.4 3.5c1.8-.9 3.4-1.3 4.8-1.3 1.1 0 1.9.2 2.4.6.5.4.7 1.2.8 2.2-.9 0-1.9.1-3 .4-1.1.2-2.2.6-3.2 1-1 .5-1.9 1.1-2.6 1.9-.7.8-1.1 1.8-1.1 3 0 .8.1 1.5.4 2.2.3.6.6 1.2 1.1 1.6s1 .8 1.6 1.1c.6.2 1.3.4 2 .4 2.4 0 4.1-.7 5.4-2 .7 1.4 2 2 3.9 2h1.6l.4-3.6h-.6zm-8.8.2c-1.6 0-2.3-.7-2.3-2.1 0-.5.2-.9.5-1.3s.7-.7 1.2-1c.5-.3 1.1-.5 1.7-.6.6-.1 1.3-.2 2-.3v4c-1.1.9-2 1.3-3.1 1.3zM643.2 273c-.6 0-1.1 0-1.5-.1-.4 0-.6-.1-.8-.3-.2-.2-.3-.5-.3-.8 0-.4-.1-.9-.1-1.6v-7.9h3.9v-3.6h-3.9v-4.3l-4.3.5v3.9h-2.1l-.4 3.6h2.5v9.7c0 .6.1 1.2.3 1.8.2.6.5 1 .9 1.5.4.4.9.7 1.5 1 .6.2 1.3.4 2 .4h3.1l.4-3.6h-1.2zM127.8 317.3c-.6 0-1.1 0-1.5-.1-.4 0-.6-.1-.8-.3-.2-.2-.3-.5-.3-.8 0-.4-.1-.9-.1-1.6v-7.9h3.9V303h-3.9v-4.3l-4.3.5v3.9h-2.1l-.4 3.6h2.5v9.7c0 .6.1 1.2.3 1.8.2.6.5 1 .9 1.5.4.4.9.7 1.5 1 .6.2 1.3.4 2 .4h3.1l.4-3.6h-1.2zM147.6 311.1c0-5.6-2.5-8.4-7.5-8.4-1.2 0-2.4.4-3.6 1.2v-9.7h-4.3v26.3h4.3v-12.7c.9-1 2-1.5 3.3-1.5 1.2 0 2.1.4 2.6 1.2.5.8.8 2 .8 3.6v9.4h4.3v-9.4zM166.9 310.3c0-1.1-.2-2.2-.6-3.1-.4-.9-.9-1.7-1.6-2.4-.7-.7-1.5-1.2-2.5-1.5-.9-.4-2-.5-3.1-.5-1.3 0-2.5.2-3.5.7-1 .5-1.9 1.1-2.6 1.9-.7.8-1.3 1.8-1.7 2.9-.4 1.1-.6 2.3-.6 3.5 0 1.3.2 2.5.6 3.6.4 1.1 1 2.1 1.8 2.9s1.8 1.4 3 1.9 2.5.7 4.1.7c2.2 0 4.1-.4 5.8-1.3l-.2-3.7c-.4.2-.8.4-1.3.6-.5.2-.9.3-1.4.5-.5.1-1 .2-1.4.3-.5.1-.9.1-1.3.1-1.3 0-2.4-.4-3.4-1.2-1-.8-1.6-1.9-1.8-3.4h11.3c.3-1 .4-1.8.4-2.5zm-10.2-3c.7-.6 1.5-.9 2.6-.9s1.9.4 2.4 1.1c.5.7.8 1.5.8 2.4h-7.1c.2-1.2.7-2 1.3-2.6zM183.7 317.2c-.3 0-.5-.2-.6-.3-.1-.2-.2-.4-.3-.8 0-.4-.1-.9-.1-1.6v-20.2h-4.3v22c0 1.4.4 2.5 1.1 3.3.7.9 1.9 1.3 3.4 1.3h1.6l.4-3.6c-.5 0-.9 0-1.2-.1zM204.5 311.8c0-1.3-.2-2.4-.6-3.5-.4-1.1-1-2.1-1.8-2.9-.8-.8-1.7-1.5-2.8-1.9-1.1-.5-2.3-.7-3.7-.7-1.4 0-2.6.2-3.7.7-1.1.5-2 1.1-2.8 1.9-.8.8-1.4 1.8-1.8 2.9-.4 1.1-.6 2.3-.6 3.6 0 1.3.2 2.5.6 3.6.4 1.1 1 2.1 1.8 2.9.8.8 1.7 1.5 2.8 1.9 1.1.5 2.3.7 3.7.7 2.7 0 4.9-.9 6.4-2.6 1.7-1.9 2.5-4 2.5-6.6zm-4.5 0c0 1.6-.4 2.9-1.1 4-.8 1-1.8 1.5-3.2 1.5s-2.5-.5-3.2-1.5c-.8-1-1.1-2.3-1.1-4 0-1.7.4-3 1.1-4 .8-1 1.8-1.5 3.2-1.5 1.4 0 2.4.5 3.2 1.5.7 1 1.1 2.4 1.1 4zM220.6 319.6l-.4-3.7c-1.4 1-2.9 1.4-4.5 1.4-1.4 0-2.5-.5-3.2-1.5-.8-1-1.2-2.3-1.2-4 0-1.7.4-3 1.2-4 .8-1 1.8-1.5 3.2-1.5 1.6 0 3.1.5 4.5 1.4l.4-3.7c-1.4-.9-3.1-1.3-5.3-1.3-1.4 0-2.6.2-3.6.7-1.1.5-1.9 1.1-2.7 1.9-.7.8-1.3 1.8-1.7 2.9-.4 1.1-.6 2.3-.6 3.6 0 1.3.2 2.5.6 3.6.4 1.1.9 2.1 1.7 2.9.7.8 1.6 1.4 2.7 1.9s2.3.7 3.6.7c2.2 0 3.9-.4 5.3-1.3zM238.4 317.3c-.3 0-.6 0-.8-.1-.2 0-.4-.2-.5-.4-.1-.2-.2-.5-.2-.9s-.1-.9-.1-1.5v-4.7c0-4.7-2.1-7-6.3-7-2.1 0-4.2.5-6.4 1.5l.4 3.5c1.8-.9 3.4-1.3 4.8-1.3 1.1 0 1.9.2 2.4.6.5.4.7 1.2.8 2.2-.9 0-1.9.1-3 .4-1.1.2-2.2.6-3.2 1-1 .5-1.9 1.1-2.6 1.9-.7.8-1.1 1.8-1.1 3 0 .8.1 1.5.4 2.2.3.6.6 1.2 1.1 1.6s1 .8 1.6 1.1c.6.2 1.3.4 2 .4 2.4 0 4.1-.7 5.4-2 .7 1.4 2 2 3.9 2h1.6l.4-3.6h-.6zm-8.9.3c-1.6 0-2.3-.7-2.3-2.1 0-.5.2-.9.5-1.3s.7-.7 1.2-1c.5-.3 1.1-.5 1.7-.6.6-.1 1.3-.2 2-.3v4c-1 .8-2 1.3-3.1 1.3zM249.5 317.3c-.6 0-1.1 0-1.5-.1-.4 0-.6-.1-.8-.3-.2-.2-.3-.5-.3-.8 0-.4-.1-.9-.1-1.6v-7.9h3.9V303h-3.9v-4.3l-4.3.5v3.9h-2.1l-.4 3.6h2.5v9.7c0 .6.1 1.2.3 1.8.2.6.5 1 .9 1.5.4.4.9.7 1.5 1 .6.2 1.3.4 2 .4h3.1l.4-3.6h-1.2zM258.2 296h-4.3v4.3h4.3V296zm0 7h-4.3v17.5h4.3V303zM279.3 311.8c0-1.3-.2-2.4-.6-3.5-.4-1.1-1-2.1-1.8-2.9-.8-.8-1.7-1.5-2.8-1.9-1.1-.5-2.3-.7-3.7-.7-1.4 0-2.6.2-3.7.7-1.1.5-2 1.1-2.8 1.9-.8.8-1.4 1.8-1.8 2.9-.4 1.1-.6 2.3-.6 3.6 0 1.3.2 2.5.6 3.6.4 1.1 1 2.1 1.8 2.9.8.8 1.7 1.5 2.8 1.9 1.1.5 2.3.7 3.7.7 2.7 0 4.9-.9 6.4-2.6 1.7-1.9 2.5-4 2.5-6.6zm-4.5 0c0 1.6-.4 2.9-1.1 4-.8 1-1.8 1.5-3.2 1.5-1.4 0-2.5-.5-3.2-1.5-.8-1-1.1-2.3-1.1-4 0-1.7.4-3 1.1-4 .8-1 1.8-1.5 3.2-1.5 1.4 0 2.4.5 3.2 1.5.7 1 1.1 2.4 1.1 4zM298.1 311.1c0-5.6-2.5-8.4-7.5-8.4-1.3 0-2.6.4-3.9 1.3l-.1-1.1h-4.1v17.5h4.3v-12.7c.9-1 2-1.5 3.3-1.5 1.2 0 2.1.4 2.6 1.2.5.8.8 2 .8 3.6v9.4h4.3v-9.3zM306.5 316h-4.3v4.6l1.2.4-1.2 3 .9.5 3.4-3.9V316zM333.5 317.3c-.3 0-.6 0-.8-.1-.2 0-.4-.2-.5-.4-.1-.2-.2-.5-.2-.9s-.1-.9-.1-1.5v-4.7c0-4.7-2.1-7-6.3-7-2.1 0-4.2.5-6.4 1.5l.4 3.5c1.8-.9 3.4-1.3 4.8-1.3 1.1 0 1.9.2 2.4.6.5.4.7 1.2.8 2.2-.9 0-1.9.1-3 .4-1.1.2-2.2.6-3.2 1-1 .5-1.9 1.1-2.6 1.9-.7.8-1.1 1.8-1.1 3 0 .8.1 1.5.4 2.2.3.6.6 1.2 1.1 1.6s1 .8 1.6 1.1c.6.2 1.3.4 2 .4 2.4 0 4.1-.7 5.4-2 .7 1.4 2 2 3.9 2h1.6l.4-3.6h-.6zm-8.9.3c-1.6 0-2.3-.7-2.3-2.1 0-.5.2-.9.5-1.3s.7-.7 1.2-1c.5-.3 1.1-.5 1.7-.6.6-.1 1.3-.2 2-.3v4c-1 .8-2 1.3-3.1 1.3zM352.2 311.1c0-5.6-2.5-8.4-7.5-8.4-1.3 0-2.6.4-3.9 1.3l-.1-1.1h-4.1v17.5h4.3v-12.7c.9-1 2-1.5 3.3-1.5 1.2 0 2.1.4 2.6 1.2.5.8.8 2 .8 3.6v9.4h4.3v-9.3zM372.5 294.3h-4.3v9.6c-1.2-.8-2.5-1.2-4.1-1.2-1.3 0-2.5.2-3.6.7-1.1.5-2 1.1-2.7 1.9-.7.8-1.3 1.8-1.7 2.9-.4 1.1-.6 2.3-.6 3.6 0 1.3.2 2.4.6 3.5.4 1.1.9 2.1 1.7 2.9.7.8 1.6 1.5 2.7 1.9 1.1.5 2.3.7 3.7.7 1.5 0 3-.4 4.3-1.3l.1 1h4.1v-26.2zm-5.2 13.5c.7 1 1 2.3 1 4 0 1.7-.3 3-1 4s-1.7 1.5-3 1.5c-1.4 0-2.5-.5-3.2-1.5-.8-1-1.2-2.3-1.2-4 0-1.7.4-3 1.2-4 .8-1 1.8-1.5 3.2-1.5 1.4 0 2.4.5 3 1.5zM393.1 317.3c-.6 0-1.1 0-1.5-.1-.4 0-.6-.1-.8-.3-.2-.2-.3-.5-.3-.8 0-.4-.1-.9-.1-1.6v-7.9h3.9V303h-3.9v-4.3l-4.3.5v3.9H384l-.4 3.6h2.5v9.7c0 .6.1 1.2.3 1.8.2.6.5 1 .9 1.5.4.4.9.7 1.5 1 .6.2 1.3.4 2 .4h3.1l.4-3.6h-1.2zM412.9 311.1c0-5.6-2.5-8.4-7.5-8.4-1.2 0-2.4.4-3.6 1.2v-9.7h-4.3v26.3h4.3v-12.7c.9-1 2-1.5 3.3-1.5 1.2 0 2.1.4 2.6 1.2.5.8.8 2 .8 3.6v9.4h4.3v-9.4zM432.2 310.3c0-1.1-.2-2.2-.6-3.1-.4-.9-.9-1.7-1.6-2.4-.7-.7-1.5-1.2-2.5-1.5-.9-.4-2-.5-3.1-.5-1.3 0-2.5.2-3.5.7-1 .5-1.9 1.1-2.6 1.9-.7.8-1.3 1.8-1.7 2.9-.4 1.1-.6 2.3-.6 3.5 0 1.3.2 2.5.6 3.6.4 1.1 1 2.1 1.8 2.9.8.8 1.8 1.4 3 1.9s2.5.7 4.1.7c2.2 0 4.1-.4 5.8-1.3l-.2-3.7c-.4.2-.8.4-1.3.6-.5.2-.9.3-1.4.5-.5.1-1 .2-1.4.3-.5.1-.9.1-1.3.1-1.3 0-2.4-.4-3.4-1.2-1-.8-1.6-1.9-1.8-3.4h11.3c.3-1 .4-1.8.4-2.5zm-10.2-3c.7-.6 1.5-.9 2.6-.9s1.9.4 2.4 1.1c.5.7.8 1.5.8 2.4h-7.1c.2-1.2.6-2 1.3-2.6zM451.7 317.3c-.6 0-1.1 0-1.5-.1-.4 0-.6-.1-.8-.3-.2-.2-.3-.5-.3-.8 0-.4-.1-.9-.1-1.6v-7.9h3.9V303H449v-4.3l-4.3.5v3.9h-2.1l-.4 3.6h2.5v9.7c0 .6.1 1.2.3 1.8.2.6.5 1 .9 1.5.4.4.9.7 1.5 1 .6.2 1.3.4 2 .4h3.1l.4-3.6h-1.2zM471.2 310.3c0-1.1-.2-2.2-.6-3.1-.4-.9-.9-1.7-1.6-2.4-.7-.7-1.5-1.2-2.5-1.5-.9-.4-2-.5-3.1-.5-1.3 0-2.5.2-3.5.7-1 .5-1.9 1.1-2.6 1.9-.7.8-1.3 1.8-1.7 2.9-.4 1.1-.6 2.3-.6 3.5 0 1.3.2 2.5.6 3.6.4 1.1 1 2.1 1.8 2.9.8.8 1.8 1.4 3 1.9s2.5.7 4.1.7c2.2 0 4.1-.4 5.8-1.3l-.2-3.7c-.4.2-.8.4-1.3.6-.5.2-.9.3-1.4.5-.5.1-1 .2-1.4.3-.5.1-.9.1-1.3.1-1.3 0-2.4-.4-3.4-1.2-1-.8-1.6-1.9-1.8-3.4h11.3c.3-1 .4-1.8.4-2.5zm-10.2-3c.7-.6 1.5-.9 2.6-.9s1.9.4 2.4 1.1c.5.7.8 1.5.8 2.4h-7.1c.2-1.2.6-2 1.3-2.6zM490 311.1c0-5.6-2.5-8.4-7.5-8.4-1.3 0-2.6.4-3.9 1.3l-.1-1.1h-4.1v17.5h4.3v-12.7c.9-1 2-1.5 3.3-1.5 1.2 0 2.1.4 2.6 1.2.5.8.8 2 .8 3.6v9.4h4.3v-9.3zM508.7 317.3c-.3 0-.6 0-.8-.1-.2 0-.4-.2-.5-.4-.1-.2-.2-.5-.2-.9s-.1-.9-.1-1.5v-4.7c0-4.7-2.1-7-6.3-7-2.1 0-4.2.5-6.4 1.5l.4 3.5c1.8-.9 3.4-1.3 4.8-1.3 1.1 0 1.9.2 2.4.6.5.4.7 1.2.8 2.2-.9 0-1.9.1-3 .4-1.1.2-2.2.6-3.2 1-1 .5-1.9 1.1-2.6 1.9-.7.8-1.1 1.8-1.1 3 0 .8.1 1.5.4 2.2.3.6.6 1.2 1.1 1.6.5.5 1 .8 1.6 1.1.6.2 1.3.4 2 .4 2.4 0 4.1-.7 5.4-2 .7 1.4 2 2 3.9 2h1.6l.4-3.6h-.6zm-8.9.3c-1.6 0-2.3-.7-2.3-2.1 0-.5.2-.9.5-1.3s.7-.7 1.2-1c.5-.3 1.1-.5 1.7-.6.6-.1 1.3-.2 2-.3v4c-1 .8-2 1.3-3.1 1.3zM527.4 311.1c0-5.6-2.5-8.4-7.5-8.4-1.3 0-2.6.4-3.9 1.3l-.1-1.1H512v17.5h4.3v-12.7c.9-1 2-1.5 3.3-1.5 1.2 0 2.1.4 2.6 1.2.5.8.8 2 .8 3.6v9.4h4.3v-9.3zM539.5 317.3c-.6 0-1.1 0-1.5-.1-.4 0-.6-.1-.8-.3-.2-.2-.3-.5-.3-.8 0-.4-.1-.9-.1-1.6v-7.9h3.9V303h-3.9v-4.3l-4.3.5v3.9h-2.1l-.4 3.6h2.5v9.7c0 .6.1 1.2.3 1.8.2.6.5 1 .9 1.5.4.4.9.7 1.5 1 .6.2 1.3.4 2 .4h3.1l.4-3.6h-1.2zM578.5 311.1c0-1.3-.1-2.4-.4-3.4-.3-1-.7-1.9-1.3-2.6-.6-.7-1.3-1.3-2.2-1.7-.9-.4-1.9-.6-3-.6-.7 0-1.4.1-2 .2-.6.2-1.2.4-1.7.6-.5.3-.9.5-1.3.9-.4.3-.6.6-.8 1-.6-.9-1.4-1.5-2.3-2-1-.5-2-.7-3-.7-1.6 0-3.1.5-4.5 1.6l-.2-1.4h-3.6v17.5h4.3v-12.8c.8-1 1.9-1.4 3.2-1.4.6 0 1.2.1 1.6.2.4.2.8.4 1.1.8.3.4.5.9.6 1.5.1.6.2 1.4.2 2.3v9.4h4.3v-10.8c0-1.1.3-1.9.8-2.5.5-.6 1.4-.9 2.7-.9 1.2 0 2 .4 2.5 1.1.5.8.7 2 .7 3.7v9.4h4.3v-9.4zM587.1 296h-4.3v4.3h4.3V296zm0 7h-4.3v17.5h4.3V303zM600.7 311.8l5.7-8.8h-5.2l-2.9 4.9-3.3-4.9h-5.2l5.6 8.8-5.6 8.8h5.2l2.9-4.9 3.2 4.9h5.2l-5.6-8.8zM621.6 296h-4.3v4.3h4.3V296zm0 7h-4.3v17.5h4.3V303zM637.9 315.7c0-.8-.1-1.5-.3-2.1-.2-.6-.5-1.1-1-1.5s-.9-.8-1.5-1.1c-.6-.3-1.3-.5-2-.7-.2 0-.4-.1-.7-.2-.3-.1-.5-.1-.7-.2l-.6-.2c-.6-.2-1.1-.5-1.5-.8-.4-.3-.5-.7-.5-1.3 0-.7.3-1.1.8-1.5.5-.3 1.2-.5 2.1-.5.4 0 .9.1 1.4.2.5.1.9.2 1.3.4l1.2.6c.4.2.7.5.9.7l.4-3.7c-.5-.4-1.3-.7-2.3-.9-1-.3-2.1-.4-3.2-.4s-2.1.2-2.9.5c-.8.3-1.5.7-2 1.2s-.9 1.1-1.1 1.8-.4 1.4-.4 2.1c.1 1 .3 1.8.6 2.4.4.6.9 1.1 1.6 1.5.9.5 1.8.8 2.5 1 .7.2 1.4.4 1.9.6.5.2.9.4 1.2.7.3.3.4.7.4 1.2s-.2 1-.6 1.4c-.4.4-1.1.6-2.1.6-.5 0-1-.1-1.5-.2s-1-.2-1.5-.4-.9-.4-1.4-.6c-.4-.2-.8-.4-1.1-.6l-.4 3.7c1.3.9 3.3 1.3 5.9 1.3 4.8.2 7.1-1.5 7.1-5zM663.9 317.3c-.3 0-.6 0-.8-.1-.2 0-.4-.2-.5-.4-.1-.2-.2-.5-.2-.9s-.1-.9-.1-1.5v-4.7c0-4.7-2.1-7-6.3-7-2.1 0-4.2.5-6.4 1.5l.4 3.5c1.8-.9 3.4-1.3 4.8-1.3 1.1 0 1.9.2 2.4.6.5.4.7 1.2.8 2.2-.9 0-1.9.1-3 .4-1.1.2-2.2.6-3.2 1-1 .5-1.9 1.1-2.6 1.9-.7.8-1.1 1.8-1.1 3 0 .8.1 1.5.4 2.2.3.6.6 1.2 1.1 1.6s1 .8 1.6 1.1c.6.2 1.3.4 2 .4 2.4 0 4.1-.7 5.4-2 .7 1.4 2 2 3.9 2h1.6l.4-3.6h-.6zm-8.8.3c-1.6 0-2.3-.7-2.3-2.1 0-.5.2-.9.5-1.3s.7-.7 1.2-1c.5-.3 1.1-.5 1.7-.6.6-.1 1.3-.2 2-.3v4c-1 .8-2 1.3-3.1 1.3zM279.3 364.6c1.1-.5 2-1.1 2.7-1.9.7-.8 1.3-1.8 1.7-2.9.4-1.1.6-2.3.6-3.5 0-1.3-.2-2.4-.6-3.6-.4-1.1-1-2.1-1.7-2.9-.7-.8-1.6-1.5-2.7-1.9-1.1-.5-2.3-.7-3.6-.7-1.6 0-3 .4-4.1 1.2v-9.6h-4.3v26.3h4.1l.1-1c1.3.9 2.7 1.3 4.3 1.3 1.2-.1 2.4-.4 3.5-.8zm-.7-12.4c.8 1 1.2 2.3 1.2 4 0 1.7-.4 3-1.2 4-.8 1-1.8 1.5-3.2 1.5-1.3 0-2.4-.5-3-1.5-.7-1-1-2.3-1-4 0-1.7.3-3 1-4s1.7-1.5 3-1.5 2.4.5 3.2 1.5zM291.9 340.4h-4.3v4.3h4.3v-4.3zm0 7h-4.3v17.5h4.3v-17.5zM309.6 372.2c1.4-1 2.2-2.4 2.2-4.1-.1-1-.3-1.9-.8-2.5-.5-.6-1-1.2-1.7-1.5-.7-.4-1.4-.7-2.2-.8-.8-.2-1.6-.3-2.4-.4-1.6-.2-2.8-.4-3.4-.6-.6-.2-1-.5-1-.9 0-.3.1-.4.4-.6.3 0 .6.1.9.1.3 0 .6.1.9.1 1.1 0 2.1-.2 3-.5.9-.4 1.6-.9 2.2-1.5.6-.6 1.1-1.3 1.4-2.2.3-.8.5-1.7.5-2.7 0-1.5-.4-2.8-1.1-3.9h2.5l.3-2.7h-1.1c-1.6 0-2.8.3-3.7.8-1.1-.7-2.4-1.1-4-1.1-1.1 0-2.1.2-3 .5-.9.4-1.6.8-2.2 1.5-.6.6-1.1 1.3-1.4 2.2-.3.8-.5 1.8-.5 2.7 0 2.5.9 4.3 2.7 5.6-1.2.6-1.8 1.4-1.8 2.4s.5 1.9 1.6 2.5c-1.9 1-2.9 2.3-2.9 3.9 0 .7.2 1.4.5 2 .4.6.9 1.2 1.6 1.6.7.5 1.6.8 2.6 1.1 1 .3 2.2.4 3.6.4 2.8.1 4.8-.4 6.3-1.4zm-4.6-20.9c.5.7.8 1.6.8 2.7s-.3 2-.8 2.7c-.5.7-1.3 1-2.4 1s-1.9-.3-2.4-1-.8-1.6-.8-2.7.3-2 .8-2.7c.5-.7 1.3-1 2.4-1s1.8.3 2.4 1zm1.6 15.3c.9.3 1.3.8 1.3 1.6 0 .7-.4 1.3-1.3 1.8s-2 .6-3.4.6-2.5-.2-3.3-.7c-.8-.5-1.2-1.1-1.2-1.8 0-1.1.8-1.9 2.4-2.4.8.1 1.5.2 2.1.3 1.4.1 2.5.3 3.4.6zM334.5 364.6c1.1-.5 2-1.1 2.7-1.9.7-.8 1.3-1.8 1.7-2.9.4-1.1.6-2.3.6-3.5 0-1.3-.2-2.4-.6-3.6-.4-1.1-1-2.1-1.7-2.9-.7-.8-1.6-1.5-2.7-1.9-1.1-.5-2.3-.7-3.6-.7-1.6 0-3 .4-4.1 1.2v-9.6h-4.3v26.3h4.1l.1-1c1.3.9 2.7 1.3 4.3 1.3 1.2-.1 2.4-.4 3.5-.8zm-.7-12.4c.8 1 1.2 2.3 1.2 4 0 1.7-.4 3-1.2 4-.8 1-1.8 1.5-3.2 1.5-1.3 0-2.4-.5-3-1.5-.7-1-1-2.3-1-4 0-1.7.3-3 1-4s1.7-1.5 3-1.5 2.4.5 3.2 1.5zM359.5 356.2c0-1.3-.2-2.4-.6-3.5-.4-1.1-1-2.1-1.8-2.9-.8-.8-1.7-1.5-2.8-1.9-1.1-.5-2.3-.7-3.7-.7-1.4 0-2.6.2-3.7.7-1.1.5-2 1.1-2.8 1.9-.8.8-1.4 1.8-1.8 2.9-.4 1.1-.6 2.3-.6 3.6 0 1.3.2 2.5.6 3.6.4 1.1 1 2.1 1.8 2.9.8.8 1.7 1.5 2.8 1.9 1.1.5 2.3.7 3.7.7 2.7 0 4.9-.9 6.4-2.6 1.7-1.9 2.5-4.1 2.5-6.6zm-4.5 0c0 1.6-.4 2.9-1.1 4-.8 1-1.8 1.5-3.2 1.5s-2.5-.5-3.2-1.5c-.8-1-1.1-2.3-1.1-4 0-1.7.4-3 1.1-4 .8-1 1.8-1.5 3.2-1.5 1.4 0 2.4.5 3.2 1.5.7 1 1.1 2.3 1.1 4zM378.3 355.5c0-5.6-2.5-8.4-7.5-8.4-1.3 0-2.6.4-3.9 1.3l-.1-1.1h-4.1v17.5h4.3v-12.7c.9-1 2-1.5 3.3-1.5 1.2 0 2.1.4 2.6 1.2.5.8.8 2 .8 3.6v9.4h4.3v-9.3zM397.6 347.4h-4.3v12.7c-.8 1-1.9 1.5-3.3 1.5-1.2 0-2.1-.4-2.6-1.2-.5-.8-.8-2-.8-3.6v-9.4h-4.3v9.4c0 5.6 2.5 8.4 7.4 8.4 1.4 0 2.7-.5 3.9-1.4l.1 1.1h4.1v-17.5zM413.9 360.1c0-.8-.1-1.5-.3-2.1-.2-.6-.5-1.1-1-1.5-.4-.4-.9-.8-1.5-1.1-.6-.3-1.3-.5-2-.7-.2 0-.4-.1-.7-.2-.3-.1-.5-.1-.7-.2l-.6-.2c-.6-.2-1.1-.5-1.5-.8-.4-.3-.5-.7-.5-1.3 0-.7.3-1.1.8-1.5.5-.3 1.2-.5 2.1-.5.4 0 .9.1 1.4.2.5.1.9.2 1.3.4l1.2.6c.4.2.7.5.9.7l.4-3.7c-.5-.4-1.3-.7-2.3-.9-1-.3-2.1-.4-3.2-.4s-2.1.2-2.9.5c-.8.3-1.5.7-2 1.2s-.9 1.1-1.1 1.8-.4 1.4-.4 2.1c.1 1 .3 1.8.6 2.4.4.6.9 1.1 1.6 1.5.9.5 1.8.8 2.5 1 .7.2 1.4.4 1.9.6.5.2.9.4 1.2.7.3.3.4.7.4 1.2s-.2 1-.6 1.4c-.4.4-1.1.6-2.1.6-.5 0-1-.1-1.5-.2s-1-.2-1.5-.4-.9-.4-1.4-.6c-.4-.2-.8-.4-1.1-.6l-.4 3.7c1.3.9 3.3 1.3 5.9 1.3 4.8.2 7.1-1.6 7.1-5zM433.5 361.7c-.6 0-1.1 0-1.5-.1-.4 0-.6-.1-.8-.3-.2-.2-.3-.5-.3-.8 0-.4-.1-.9-.1-1.6V351h3.9v-3.6h-3.9v-4.3l-4.3.5v3.9h-2.1l-.4 3.5h2.5v9.7c0 .6.1 1.2.3 1.8.2.6.5 1 .9 1.5.4.4.9.7 1.5 1 .6.2 1.3.4 2 .4h3.1l.4-3.6h-1.2zM454.5 356.2c0-1.3-.2-2.4-.6-3.5-.4-1.1-1-2.1-1.8-2.9-.8-.8-1.7-1.5-2.8-1.9-1.1-.5-2.3-.7-3.7-.7-1.4 0-2.6.2-3.7.7-1.1.5-2 1.1-2.8 1.9-.8.8-1.4 1.8-1.8 2.9-.4 1.1-.6 2.3-.6 3.6 0 1.3.2 2.5.6 3.6.4 1.1 1 2.1 1.8 2.9.8.8 1.7 1.5 2.8 1.9 1.1.5 2.3.7 3.7.7 2.7 0 4.9-.9 6.4-2.6 1.7-1.9 2.5-4.1 2.5-6.6zm-4.5 0c0 1.6-.4 2.9-1.1 4-.8 1-1.8 1.5-3.2 1.5-1.4 0-2.5-.5-3.2-1.5-.8-1-1.1-2.3-1.1-4 0-1.7.4-3 1.1-4 .8-1 1.8-1.5 3.2-1.5 1.4 0 2.4.5 3.2 1.5.7 1 1.1 2.3 1.1 4zM481.4 347.4H477v12.7c-.8 1-1.9 1.5-3.3 1.5-1.2 0-2.1-.4-2.6-1.2-.5-.8-.8-2-.8-3.6v-9.4H466v9.4c0 5.6 2.5 8.4 7.4 8.4 1.4 0 2.7-.5 3.9-1.4l.1 1.1h4.1v-17.5zM497.6 360.1c0-.8-.1-1.5-.3-2.1-.2-.6-.5-1.1-1-1.5-.4-.4-.9-.8-1.5-1.1-.6-.3-1.3-.5-2-.7-.2 0-.4-.1-.7-.2-.3-.1-.5-.1-.7-.2l-.6-.2c-.6-.2-1.1-.5-1.5-.8-.4-.3-.5-.7-.5-1.3 0-.7.3-1.1.8-1.5.5-.3 1.2-.5 2.1-.5.4 0 .9.1 1.4.2.5.1.9.2 1.3.4l1.2.6c.4.2.7.5.9.7l.4-3.7c-.5-.4-1.3-.7-2.3-.9-1-.3-2.1-.4-3.2-.4s-2.1.2-2.9.5-1.5.7-2 1.2-.9 1.1-1.1 1.8c-.2.7-.4 1.4-.4 2.1.1 1 .3 1.8.6 2.4.4.6.9 1.1 1.6 1.5.9.5 1.8.8 2.5 1 .7.2 1.4.4 1.9.6.5.2.9.4 1.2.7.3.3.4.7.4 1.2s-.2 1-.6 1.4c-.4.4-1.1.6-2.1.6-.5 0-1-.1-1.5-.2s-1-.2-1.5-.4-.9-.4-1.4-.6c-.4-.2-.8-.4-1.1-.6l-.4 3.7c1.3.9 3.3 1.3 5.9 1.3 4.8.2 7.1-1.6 7.1-5zM505.2 360.4h-4.3v4.6h4.3v-4.6zM516.5 338.6h-4.3v4.6l1.2.4-1.2 3 .9.5 3.4-3.9v-4.6zm-7.3 0h-4.3v4.6l1.2.4-1.2 3 .9.5 3.4-3.9v-4.6z"/><path fill="#FFF" d="M403 398.9h-5.4v1.6h5.4v-1.6zM414.8 392.3h-2.1l-4.4 12.3h2.3l1.1-3h4.1l1.1 3h2.3l-4.4-12.3zm-2.4 7.2l1.3-3.6 1.3 3.6h-2.6zM426.5 404.1l-.2-1.9c-.7.5-1.5.7-2.3.7-.7 0-1.2-.2-1.6-.7-.4-.5-.6-1.2-.6-2s.2-1.5.6-2c.4-.5.9-.7 1.6-.7.8 0 1.5.2 2.3.7l.2-1.9c-.7-.4-1.6-.6-2.6-.6-.7 0-1.3.1-1.8.4-.5.2-1 .6-1.3 1-.4.4-.6.9-.8 1.4-.2.5-.3 1.1-.3 1.8 0 .6.1 1.2.3 1.8.2.6.5 1 .8 1.4.4.4.8.7 1.3 1 .5.2 1.1.4 1.8.4 1.1-.1 1.9-.3 2.6-.8zM441.4 399.9c0-.6-.1-1.2-.2-1.7s-.4-1-.7-1.3c-.3-.4-.7-.6-1.1-.8-.4-.2-.9-.3-1.5-.3-.4 0-.7 0-1 .1-.3.1-.6.2-.8.3-.3.1-.5.3-.6.4-.2.2-.3.3-.4.5-.3-.4-.7-.8-1.2-1-.5-.2-1-.3-1.5-.3-.8 0-1.6.3-2.2.8l-.1-.7h-1.8v8.8h2.2v-6.4c.4-.5.9-.7 1.6-.7.3 0 .6 0 .8.1.2.1.4.2.5.4.1.2.2.4.3.7.1.3.1.7.1 1.1v4.7h2.2v-5.4c0-.5.1-.9.4-1.2.3-.3.7-.5 1.4-.5.6 0 1 .2 1.3.6.2.4.4 1 .4 1.8v4.7h2.2v-4.7zM451.1 399.5c0-.6-.1-1.1-.3-1.6-.2-.5-.5-.9-.8-1.2-.3-.3-.8-.6-1.2-.8-.5-.2-1-.3-1.5-.3-.7 0-1.2.1-1.8.4-.5.2-1 .6-1.3 1-.4.4-.6.9-.8 1.4-.2.5-.3 1.1-.3 1.8 0 .6.1 1.2.3 1.8.2.6.5 1 .9 1.4.4.4.9.7 1.5 1 .6.2 1.3.4 2 .4 1.1 0 2.1-.2 2.9-.7l-.1-1.8-.6.3s-.5.2-.7.2c-.2.1-.5.1-.7.1-.2 0-.5.1-.6.1-.6 0-1.2-.2-1.7-.6-.5-.4-.8-1-.9-1.7h5.7c-.1-.5 0-.9 0-1.2zM446 398c.3-.3.8-.5 1.3-.5s.9.2 1.2.5c.3.4.4.8.4 1.2h-3.6c.1-.5.3-.9.7-1.2zM463.3 404.5c.6-.3 1.1-.6 1.4-.9.3-.4.5-.8.6-1.2.1-.4.1-.8.1-1.2 0-.4-.1-.8-.2-1.2-.2-.3-.3-.6-.6-.9-.2-.3-.5-.5-.7-.6-.3-.2-.5-.3-.8-.4l-.9-.4c-.6-.2-1.1-.4-1.5-.5-.4-.1-.8-.3-1.1-.4-.3-.1-.5-.3-.6-.4-.1-.2-.2-.4-.2-.7 0-.2.1-.4.2-.6.1-.2.3-.3.5-.4.2-.1.4-.2.7-.2.3 0 .6-.1.9-.1 1 0 2.2.4 3.6 1.1l.2-2.3c-.2-.1-.4-.2-.7-.3l-.9-.3c-.4-.1-.7-.2-1.1-.2-.4-.1-.8-.1-1.2-.1-.8 0-1.4.1-2 .3-.6.2-1 .5-1.4.8-.4.3-.6.7-.8 1.2-.2.4-.3.9-.3 1.4 0 .7.2 1.3.6 1.8.3.4.9.8 1.6 1.1l.7.3 1.6.6c.2.1.4.2.7.3.2.1.4.2.6.4.2.2.4.3.5.5.1.2.2.4.2.7 0 .9-.7 1.3-2.2 1.3-.9 0-1.6-.1-2.3-.4-.7-.3-1.2-.6-1.6-.9l-.3 2.6c.4.2.9.5 1.7.6.7.2 1.5.3 2.4.3 1.1-.4 1.9-.5 2.6-.7zM474.7 395.8h-2.2v6.4c-.4.5-1 .7-1.6.7-.6 0-1-.2-1.3-.6-.3-.4-.4-1-.4-1.8v-4.7H467v4.7c0 2.8 1.2 4.2 3.7 4.2.7 0 1.3-.2 1.9-.7v.5h2v-8.7zM482.9 404.4c.5-.2 1-.6 1.3-1 .4-.4.6-.9.8-1.4.2-.5.3-1.1.3-1.8 0-.6-.1-1.2-.3-1.8-.2-.6-.5-1-.8-1.4-.4-.4-.8-.7-1.3-1-.5-.2-1.1-.4-1.8-.4-.8 0-1.5.2-2.2.6l-.2-.5h-1.9v13h2.2V404c.6.4 1.3.6 2 .6.8.2 1.4.1 1.9-.2zm-.3-6.2c.4.5.6 1.2.6 2s-.2 1.5-.6 2c-.4.5-.9.7-1.6.7-.7 0-1.2-.2-1.5-.7-.3-.5-.5-1.2-.5-2 0-.9.2-1.5.5-2s.8-.7 1.5-.7 1.2.2 1.6.7zM493.1 404.4c.5-.2 1-.6 1.3-1 .4-.4.6-.9.8-1.4.2-.5.3-1.1.3-1.8 0-.6-.1-1.2-.3-1.8-.2-.6-.5-1-.8-1.4-.4-.4-.8-.7-1.3-1-.5-.2-1.1-.4-1.8-.4-.8 0-1.5.2-2.2.6l-.2-.5H487v13h2.2V404c.6.4 1.3.6 2 .6.8.2 1.4.1 1.9-.2zm-.3-6.2c.4.5.6 1.2.6 2s-.2 1.5-.6 2c-.4.5-.9.7-1.6.7-.7 0-1.2-.2-1.5-.7-.3-.5-.5-1.2-.5-2 0-.9.2-1.5.5-2s.8-.7 1.5-.7 1.2.2 1.6.7zM499.9 403c-.1 0-.2-.1-.3-.2s-.1-.2-.1-.4v-10.9h-2.2v11c0 .7.2 1.2.6 1.7.4.4.9.6 1.7.6h.8l.2-1.8h-.7zM504.2 392.3H502v2.2h2.2v-2.2zm0 3.5H502v8.8h2.2v-8.8zM514 399.5c0-.6-.1-1.1-.3-1.6-.2-.5-.5-.9-.8-1.2-.3-.3-.8-.6-1.2-.8-.5-.2-1-.3-1.5-.3-.7 0-1.2.1-1.8.4-.5.2-1 .6-1.3 1-.4.4-.6.9-.8 1.4-.2.5-.3 1.1-.3 1.8 0 .6.1 1.2.3 1.8.2.6.5 1 .9 1.4.4.4.9.7 1.5 1 .6.2 1.3.4 2 .4 1.1 0 2.1-.2 2.9-.7l-.1-1.8-.6.3c-.2.1-.5.2-.7.2-.2.1-.5.1-.7.1-.2 0-.5.1-.6.1-.6 0-1.2-.2-1.7-.6-.5-.4-.8-1-.9-1.7h5.7c-.1-.5 0-.9 0-1.2zm-5.1-1.5c.3-.3.8-.5 1.3-.5s.9.2 1.2.5c.3.4.4.8.4 1.2h-3.6c.1-.5.4-.9.7-1.2zM521.6 402.2c0-.4-.1-.7-.2-1-.1-.3-.3-.5-.5-.8s-.5-.4-.8-.5c-.3-.1-.6-.3-1-.4-.1 0-.2-.1-.4-.1s-.3-.1-.3-.1l-.3-.1c-.3-.1-.5-.2-.7-.4-.2-.1-.3-.4-.3-.6 0-.3.1-.6.4-.7.3-.2.6-.2 1-.2.2 0 .4 0 .7.1.2.1.5.1.7.2l.6.3c.2.1.3.2.5.4l.2-1.9c-.3-.2-.6-.3-1.2-.5-.5-.1-1-.2-1.6-.2-.6 0-1.1.1-1.5.2-.4.2-.7.4-1 .6-.3.3-.4.6-.6.9-.1.3-.2.7-.2 1 0 .5.1.9.3 1.2.2.3.4.5.8.7.5.2.9.4 1.3.5.4.1.7.2 1 .3.3.1.5.2.6.4.1.1.2.3.2.6s-.1.5-.3.7c-.2.2-.5.3-1 .3-.2 0-.5 0-.7-.1-.3-.1-.5-.1-.7-.2-.2-.1-.5-.2-.7-.3-.2-.1-.4-.2-.5-.3l-.2 1.9c.6.4 1.6.6 3 .6 2.2.1 3.4-.8 3.4-2.5zM525.3 402.3h-2.2v2.3l.6.2-.6 1.5.5.2 1.7-1.9v-2.3zM540 392.3h-9.2v2.2h3.5v10.1h2.2v-10.1h3.5v-2.2zM547.7 399.5c0-.6-.1-1.1-.3-1.6-.2-.5-.5-.9-.8-1.2-.3-.3-.8-.6-1.2-.8-.5-.2-1-.3-1.5-.3-.7 0-1.2.1-1.8.4-.5.2-1 .6-1.3 1-.4.4-.6.9-.8 1.4-.2.5-.3 1.1-.3 1.8 0 .6.1 1.2.3 1.8.2.6.5 1 .9 1.4.4.4.9.7 1.5 1 .6.2 1.3.4 2 .4 1.1 0 2.1-.2 2.9-.7l-.1-1.8-.6.3s-.5.2-.7.2c-.2.1-.5.1-.7.1-.2 0-.5.1-.6.1-.6 0-1.2-.2-1.7-.6-.5-.4-.8-1-.9-1.7h5.7v-1.2zm-5.1-1.5c.3-.3.8-.5 1.3-.5s.9.2 1.2.5c.3.4.4.8.4 1.2h-3.6c.2-.5.4-.9.7-1.2zM557.1 399.9c0-2.8-1.2-4.2-3.7-4.2-.7 0-1.3.2-1.9.7v-.5h-2v8.8h2.2v-6.4c.4-.5 1-.8 1.6-.8.6 0 1 .2 1.3.6.3.4.4 1 .4 1.8v4.7h2.2v-4.7zM566.4 403h-.4c-.1 0-.2-.1-.2-.2-.1-.1-.1-.2-.1-.4v-3.2c0-2.3-1.1-3.5-3.2-3.5-1 0-2.1.3-3.2.8l.2 1.8c.9-.4 1.7-.7 2.4-.7.6 0 1 .1 1.2.3.2.2.4.6.4 1.1-.4 0-.9.1-1.5.2s-1.1.3-1.6.5-.9.6-1.3 1-.5.9-.5 1.5c0 .4.1.8.2 1.1.1.3.3.6.5.8s.5.4.8.5c.3.1.6.2 1 .2 1.2 0 2.1-.3 2.7-1 .4.7 1 1 2 1h.8l.2-1.8h-.4zm-4.4.1c-.8 0-1.2-.4-1.2-1.1 0-.2.1-.5.2-.6.2-.2.4-.3.6-.5.2-.1.5-.2.8-.3.3-.1.7-.1 1-.1v2c-.3.4-.8.6-1.4.6zM575.8 399.9c0-2.8-1.2-4.2-3.7-4.2-.7 0-1.3.2-1.9.7v-.5h-2v8.8h2.2v-6.4c.4-.5 1-.8 1.6-.8.6 0 1 .2 1.3.6.3.4.4 1 .4 1.8v4.7h2.2v-4.7zM581.9 403h-.7c-.2 0-.3-.1-.4-.2-.1-.1-.1-.2-.2-.4v-4.8h1.9v-1.8h-1.9v-2.2l-2.2.2v1.9h-1.1l-.2 1.8h1.2v4.9c0 .3 0 .6.1.9.1.3.2.5.4.7.2.2.4.4.7.5.3.1.6.2 1 .2h1.6l.2-1.8h-.4zM594.1 402.2c0-.4-.1-.7-.2-1-.1-.3-.3-.5-.5-.8s-.5-.4-.8-.5c-.3-.1-.6-.3-1-.4-.1 0-.2-.1-.4-.1s-.3-.1-.3-.1l-.3-.1c-.3-.1-.5-.2-.7-.4-.2-.1-.3-.4-.3-.6 0-.3.1-.6.4-.7.3-.2.6-.2 1-.2.2 0 .4 0 .7.1.2.1.5.1.7.2l.6.3c.2.1.3.2.5.4l.2-1.9c-.3-.2-.6-.3-1.2-.5-.5-.1-1-.2-1.6-.2-.6 0-1.1.1-1.5.2-.4.2-.7.4-1 .6-.3.3-.4.6-.6.9-.1.3-.2.7-.2 1 0 .5.1.9.3 1.2.2.3.4.5.8.7.5.2.9.4 1.3.5.4.1.7.2 1 .3.3.1.5.2.6.4.1.1.2.3.2.6s-.1.5-.3.7c-.2.2-.5.3-1 .3-.2 0-.5 0-.7-.1-.3-.1-.5-.1-.7-.2-.2-.1-.5-.2-.7-.3-.2-.1-.4-.2-.5-.3l-.2 1.9c.6.4 1.6.6 3 .6 2.2.1 3.4-.8 3.4-2.5zM597.9 392.3h-2.2v2.2h2.2v-2.2zm0 3.5h-2.2v8.8h2.2v-8.8zM607.8 399.9c0-2.8-1.2-4.2-3.7-4.2-.7 0-1.3.2-1.9.7v-.5h-2v8.8h2.2v-6.4c.4-.5 1-.8 1.6-.8.6 0 1 .2 1.3.6.3.4.4 1 .4 1.8v4.7h2.2v-4.7zM616.3 404.1l-.2-1.9c-.7.5-1.5.7-2.3.7-.7 0-1.2-.2-1.6-.7-.4-.5-.6-1.2-.6-2s.2-1.5.6-2c.4-.5.9-.7 1.6-.7.8 0 1.5.2 2.3.7l.2-1.9c-.7-.4-1.6-.6-2.6-.6-.7 0-1.3.1-1.8.4-.5.2-1 .6-1.3 1-.4.4-.6.9-.8 1.4-.2.5-.3 1.1-.3 1.8 0 .6.1 1.2.3 1.8.2.6.5 1 .8 1.4.4.4.8.7 1.3 1 .5.2 1.1.4 1.8.4 1.1-.1 1.9-.3 2.6-.8zM625.4 399.5c0-.6-.1-1.1-.3-1.6-.2-.5-.5-.9-.8-1.2-.3-.3-.8-.6-1.2-.8-.5-.2-1-.3-1.5-.3-.7 0-1.2.1-1.8.4-.5.2-1 .6-1.3 1-.4.4-.6.9-.8 1.4-.2.5-.3 1.1-.3 1.8 0 .6.1 1.2.3 1.8.2.6.5 1 .9 1.4.4.4.9.7 1.5 1 .6.2 1.3.4 2 .4 1.1 0 2.1-.2 2.9-.7l-.1-1.8-.6.3c-.2.1-.5.2-.7.2-.2.1-.5.1-.7.1-.2 0-.5.1-.6.1-.6 0-1.2-.2-1.7-.6-.5-.4-.8-1-.9-1.7h5.7v-1.2zm-5.1-1.5c.3-.3.8-.5 1.3-.5s.9.2 1.2.5c.3.4.4.8.4 1.2h-3.6c.2-.5.4-.9.7-1.2zM635 392.3h-1.7c-.1.2-.2.4-.4.6l-.6.6c-.2.2-.4.3-.7.5l-.6.3.2 1.9c.5-.1 1.1-.3 1.5-.6v9.1h2.2v-12.4zM643.9 404.5c.6-.2 1-.5 1.4-.9.4-.4.7-.8.8-1.2.2-.5.3-.9.3-1.4 0-.7-.2-1.3-.6-1.9-.4-.6-.9-1-1.6-1.3 1-.8 1.5-1.8 1.5-2.9 0-.4-.1-.8-.2-1.1-.1-.3-.4-.6-.6-.9-.3-.3-.7-.4-1.1-.6-.4-.1-1-.2-1.6-.2-.7 0-1.2.1-1.7.2-.5.2-.8.4-1.1.6-.3.3-.5.6-.6 1-.1.4-.2.8-.2 1.2 0 1.2.4 2.2 1.2 2.8-1.3.9-1.9 2.1-1.9 3.4 0 .5.1.9.3 1.3s.4.8.8 1.1c.3.3.8.6 1.3.8.5.2 1.1.3 1.8.3.6 0 1.2-.1 1.8-.3zm-.6-10.2c.2.3.4.6.4 1.1 0 .9-.6 1.5-1.7 1.8-1-.3-1.5-.9-1.5-1.8 0-.5.1-.8.4-1.1.3-.3.7-.4 1.2-.4.6-.1 1 .1 1.2.4zm.3 5.3c.4.4.6.9.6 1.5s-.2 1.1-.6 1.4c-.4.4-.9.5-1.6.5-.6 0-1.1-.2-1.5-.5-.4-.3-.6-.8-.6-1.4 0-.3.1-.6.2-.9.1-.3.3-.5.5-.7.2-.2.4-.4.7-.5.3-.1.5-.2.8-.3.7.2 1.1.5 1.5.9zM654.1 404.5c.5-.2 1-.5 1.3-.9.4-.4.7-.8.9-1.3.2-.5.3-1 .3-1.6 0-.6-.1-1.1-.3-1.5-.2-.4-.4-.8-.8-1.1-.3-.3-.7-.5-1.2-.7-.5-.2-1-.2-1.5-.2-1 0-1.7.2-2 .7 0-.4.2-.8.4-1.1.2-.4.4-.7.7-1.1.3-.3.6-.7.9-1 .3-.3.6-.6.9-.8.3-.2.6-.4.9-.5.3-.1.5-.2.6-.2l-1.5-.9c-.3 0-.6.1-1 .3-.4.2-.7.4-1.1.8-.4.3-.8.7-1.1 1.2-.4.5-.7 1-1 1.6-.3.6-.5 1.2-.7 1.9-.2.7-.3 1.4-.3 2.2 0 1.6.3 2.8 1 3.5.7.8 1.6 1.1 2.8 1.1.7-.1 1.3-.2 1.8-.4zm-.5-5.3c.2.1.4.2.6.4.2.2.3.3.3.5.1.2.1.4.1.6 0 .3 0 .6-.1.8-.1.3-.2.5-.4.7s-.4.3-.6.5c-.2.1-.5.2-.8.2-.2 0-.5 0-.7-.1-.2-.1-.4-.2-.6-.4-.2-.2-.3-.3-.4-.6-.1-.2-.2-.5-.2-.8 0-.7.2-1.2.6-1.5.4-.3.9-.5 1.5-.5.2 0 .5.1.7.2zM663.4 404.5c.5-.2 1-.5 1.4-.8.4-.4.7-.8 1-1.3.2-.5.4-1.1.4-1.8 0-1.2-.4-2.2-1.2-2.7-.8-.6-2-.9-3.7-.9l.3-2.4h3.7l.2-2.2h-5.6l-.8 6.4h1.9c.6 0 1.1 0 1.5.1.4.1.7.2.9.4s.4.4.5.6c.1.2.1.5.1.8 0 .7-.2 1.3-.7 1.6-.4.3-1 .5-1.7.5-1.1 0-1.9-.3-2.6-.9l-.5 2c0 .1.1.2.3.3.2.1.5.2.8.3.3.1.7.2 1 .3.4.1.7.1 1.1.1.5-.1 1.1-.2 1.7-.4z"/></svg>