<svg version="1" xmlns="http://www.w3.org/2000/svg" width="346.667" height="346.667" viewBox="0 0 260.000000 260.000000"><path d="M117 9.7c-22.8 3.8-43 15.4-55.4 31.7-15.4 20.4-18.3 48.7-7.3 71.5 7.5 15.4 22.9 28.2 42 34.8 3.9 1.4 17.3 4.5 29.8 6.8 12.5 2.4 24.7 5.2 27.1 6.3 14.2 6.3 19 20.7 10.9 32.6-2.6 3.8-4.7 5.5-9.7 7.7-3.5 1.6-7.7 3.1-9.4 3.2-1.7.2-3.3.7-3.8 1.1-.4.4-.7 10.9-.7 23.2v22.5l6.5-.6c3.6-.3 8.3-1.1 10.5-1.7 2.2-.5 5-1.2 6.3-1.4 1.2-.3 4.5-1.3 7.2-2.4 25.4-10 42.1-27.9 47.9-51.3 7.3-29.5-5.9-59.2-33.4-74.7-10.1-5.7-28.1-11.2-44.5-13.5-2.4-.4-4.7-.8-5-1-.3-.2-2.6-.6-5-1-17.1-2.4-26.2-7.1-30-15.3-5.4-11.3 1.1-24.7 14.7-30.4l5.3-2.2V32.3c0-12.8-.3-23.2-.7-23.2-.5.1-1.9.4-3.3.6z"/><path d="M140.9 9.2c-.4 1-.3 45.1.1 45.7.3.4 2.5 1.3 5 2 11 3.1 19.6 11.8 22.8 22.8.8 2.5 1.7 4.1 2.5 3.8 4.3-1.4 41-11.5 42-11.5 3.1-.1 3.6-1.4 2.2-6.5-7.3-27.8-29.6-48.6-58-54.1-11.7-2.3-16.3-2.9-16.6-2.2zM80.5 166.6c-2.7.8-6.1 1.6-7.5 1.9-1.4.3-9.5 2.2-18 4.3-14.9 3.6-15.5 3.9-15.4 6.2.3 10.5 6.9 26.4 15.7 37.8 13.4 17.6 36.6 30.2 60.5 32.9l5.2.6-.2-23.3-.3-23.3-5.1-1.7c-14.8-4.8-25.5-17.5-28-33-.4-2.2-.9-4-1.3-3.9-.3 0-2.8.7-5.6 1.5z"/></svg>