<svg xmlns="http://www.w3.org/2000/svg" viewBox="0 0 377 63.5"><path fill="#F05123" d="M125.4 48.9V3.7h-12.7V61h12.7M133.4 3.7h-3.2v12h2.6c8.8 0 16 5.2 16 16.6s-7.2 16.6-16 16.6h-2.6v12h3.1c17.3 0 28.8-10.9 28.8-28.6S150.6 3.7 133.4 3.7M25.8 14c5.1.9 6.8 4.7 7.2 7l11.5-3.2c-1.1-6.3-6-14.3-18.6-15.2V14zM21.1 50.5c-5.4-1.2-8-5.1-8.4-9.5L.9 43.9c.8 7.4 6.7 16.8 20.2 18.1V50.5z"/><path fill="#F05123" d="M29 26.9l-7.7-1.5c-4-.7-5.7-2.7-5.7-5.5 0-2.6 2.1-5 5.4-5.9V2.6C11.2 3.7 3 10.9 3 20.9c0 8.5 5.9 14.9 15.6 16.8l7.8 1.5c3.8.7 6.1 2.8 6.1 5.7 0 3.2-2.5 5.5-6.8 5.9v11.3c12.7-.6 19.7-9.4 19.7-18.1.1-8.1-5.5-15.1-16.4-17.1M91.6 22.3c5.1 6.8 4.7 16.3-1.3 22.3S74.7 51 68 45.9l-9.2 9.2c11.7 10 29.3 9.4 40.4-1.7s11.6-28.7 1.7-40.4l-9.3 9.3zM64.6 42.5c-5.2-6.8-4.8-16.4 1.2-22.4s15.6-6.4 22.4-1.2l9.2-9.2C85.7-.4 68 .1 56.9 11.2 45.8 22.3 45.3 40 55.3 51.7l9.3-9.2zM183.2 42.4c-5.2-6.8-4.8-16.3 1.3-22.4 6-6 15.6-6.4 22.4-1.3l9.2-9.2c-11.7-10-29.4-9.5-40.4 1.6-11.2 11.2-11.7 28.8-1.7 40.5l9.2-9.2zM210.2 22.2c5.2 6.8 4.8 16.3-1.3 22.4-6 6-15.6 6.4-22.4 1.3l-9.2 9.2c11.7 10 29.4 9.5 40.4-1.6 11.1-11.1 11.6-28.7 1.6-40.4l-9.1 9.1z"/><path fill="#FFF" d="M306.6 25.9c2.5 0 4-1.3 4-3.4 0-2.1-1.3-3.6-3.9-3.6h-5.3v7h5.2zm-.5-11.2c2.4 0 3.8-1.3 3.8-3.3 0-2-1.3-3.3-3.8-3.3h-4.7v6.6h4.7zm.8-11c5.2 0 8.1 3 8.1 7.1 0 2.7-1.6 4.9-3.9 5.7 2.6.6 4.7 3 4.7 6.3 0 4.3-3.2 7.4-8.2 7.4h-11.3V3.7h10.6zM328.1 19.4h7.3l-3.7-10-3.6 10zm9 4.8h-10.8l-2.2 6.1h-5.5l10.2-26.5h6L345 30.2h-5.6l-2.3-6zM365.9 30.2l-12-18.8v18.8h-5.2V3.7h6.5l11 17.5V3.7h5.2v26.5M280.8 15.6c2.6 0 4.1-1.5 4.1-3.7s-1.5-3.7-4.1-3.7h-4.6v7.4h4.6zm-1.5 4.4h-3.1v10.2H271V3.7h10.8c5.2 0 8.4 3.6 8.4 8.2 0 3.7-2.2 6.5-5.6 7.5l5.9 10.8h-5.8L279.3 20zM259 3.7v16.7c0 3.5-2.9 5.3-5.9 5.3-3.1 0-5.9-1.8-5.9-5.3V3.7H242v17.1c0 6.5 5.5 10 11.1 10s11.1-3.5 11.1-10V3.7H259zM268.1 34.5h5.5L267.1 61h-4.4l-5.8-18.4-5.8 18.4h-4.5l-6.5-26.5h5.7l3.5 16.4 5.5-16.4h4.3l5.5 16.5M289.1 56.6c4.1 0 8.3-2.8 8.3-8.8 0-6-4.2-8.8-8.3-8.8-4.1 0-8.3 2.8-8.3 8.8 0 6 4.2 8.8 8.3 8.8m0-22.6c7.2 0 13.6 5.3 13.6 13.8s-6.4 13.8-13.6 13.8c-7.2 0-13.6-5.3-13.6-13.8 0-8.6 6.4-13.8 13.6-13.8M317.2 46.4c2.6 0 4.1-1.5 4.1-3.7s-1.5-3.7-4.1-3.7h-4.6v7.4h4.6zm-1.5 4.4h-3.1V61h-5.2V34.5h10.8c5.2 0 8.4 3.6 8.4 8.1 0 3.7-2.2 6.5-5.6 7.5l5.9 10.8h-5.8l-5.4-10.1zM368.5 42.3c-.3-1.5-1.5-3.7-4.8-3.7-2.5 0-4.1 1.6-4.1 3.4 0 1.5.9 2.6 2.9 3l3.7.7c4.8.9 7.4 4.1 7.4 7.8 0 4.1-3.4 8.2-9.6 8.2-7 0-10.1-4.5-10.5-8.3l4.8-1.3c.2 2.6 2.1 5 5.8 5 2.8 0 4.3-1.4 4.3-3.3 0-1.5-1.2-2.7-3.2-3.1l-3.7-.7c-4.2-.9-7-3.6-7-7.6 0-4.7 4.2-8.3 9.2-8.3 6.4 0 8.9 3.9 9.5 6.9l-4.7 1.3zM352.5 61l-10.4-13.6 10-12.9h-6.3L337 45.8V34.5h-5.2V61h5.2V49.1l9 11.9"/></svg>